<svg version="1.1" id="Layer_1" xmlns="http://www.w3.org/2000/svg" xmlns:xlink="http://www.w3.org/1999/xlink" x="0px" y="0px" width="100%" viewBox="0 0 2048 2048" enable-background="new 0 0 2048 2048" xml:space="preserve">

<path fill="#E8BF73" opacity="1.000000" stroke="none" d="
M721.926514,970.944153 
	C711.872009,1004.072510 701.920166,1036.810059 692.000610,1069.557373 
	C681.597534,1103.901001 671.249878,1138.261475 660.815674,1172.595703 
	C659.031494,1178.466553 656.744568,1184.189575 655.101562,1190.095459 
	C654.624451,1191.810181 654.916138,1194.481323 655.991516,1195.753784 
	C660.066895,1200.575806 664.535217,1205.076416 668.987915,1209.567139 
	C695.365967,1236.170288 721.779175,1262.738403 748.183838,1289.315186 
	C761.075439,1302.290771 774.043091,1315.191650 786.852478,1328.247559 
	C803.683533,1345.402588 812.320312,1366.058594 810.713379,1390.085205 
	C809.775269,1404.111816 806.938660,1418.023804 804.715881,1431.949097 
	C800.585388,1457.826416 796.252197,1483.671265 792.053040,1509.537720 
	C787.108704,1539.994995 782.213440,1570.459961 777.303833,1600.922852 
	C773.846191,1622.377075 770.421753,1643.836792 766.943909,1665.287842 
	C761.161133,1700.954956 731.453491,1724.911499 698.600525,1724.988403 
	C668.357788,1725.059082 645.648254,1712.318115 632.459839,1684.682495 
	C625.138123,1669.340454 626.251221,1653.117676 629.115417,1636.762207 
	C632.779114,1615.842041 635.724609,1594.796509 639.030640,1573.813110 
	C642.388184,1552.502808 645.827087,1531.205322 649.195007,1509.896606 
	C653.133362,1484.979248 657.043762,1460.057617 660.942627,1435.134033 
	C661.814209,1429.562378 662.287231,1423.908447 663.508728,1418.418213 
	C664.354370,1414.617676 663.300110,1412.039307 660.571411,1409.607788 
	C648.653931,1398.987549 636.811829,1388.282837 624.909973,1377.645020 
	C610.161926,1364.463379 595.357239,1351.344849 580.622253,1338.148560 
	C564.415588,1323.634155 548.260132,1309.062500 531.953857,1294.400269 
	C524.793274,1311.746460 517.770935,1328.700562 510.793854,1345.673340 
	C501.188782,1369.038818 491.747253,1392.472412 481.984833,1415.771729 
	C475.952484,1430.168701 469.572968,1444.424438 463.129944,1458.644043 
	C457.183838,1471.766846 447.553009,1482.131958 437.368164,1492.033569 
	C423.527771,1505.489258 409.749542,1519.009155 395.867584,1532.421875 
	C358.403107,1568.620117 320.906219,1604.785034 283.404297,1640.944580 
	C267.228790,1656.541138 250.940460,1672.021362 234.826263,1687.680786 
	C211.828796,1710.029541 177.837112,1712.957764 152.571472,1699.452515 
	C134.918137,1690.016357 121.131721,1675.898560 116.623924,1655.618896 
	C111.490227,1632.523438 116.005363,1611.146973 132.905334,1593.678223 
	C149.411438,1576.616699 166.399841,1560.021729 183.182465,1543.227783 
	C202.783279,1523.613525 222.379303,1503.994507 241.998047,1484.398193 
	C267.266541,1459.158569 292.356873,1433.735474 317.933319,1408.811523 
	C328.174377,1398.831787 334.221680,1386.900024 339.015167,1373.752563 
	C356.216370,1326.573975 373.735199,1279.510986 391.215607,1232.434570 
	C396.480530,1218.255615 401.958954,1204.155151 407.455200,1190.063843 
	C408.848907,1186.490601 408.905304,1183.393799 407.511749,1179.581055 
	C398.769958,1155.663818 395.587708,1131.016602 401.964050,1106.123047 
	C409.791321,1075.564575 418.225159,1045.139038 427.316345,1014.932739 
	C436.609161,984.056580 446.399719,953.298828 457.103790,922.887451 
	C468.251404,891.215698 480.136536,859.768372 492.856628,828.696716 
	C502.747375,804.536377 517.773682,783.456604 538.562622,767.291260 
	C552.199219,756.687439 567.849182,749.736755 584.857849,745.918823 
	C601.109558,742.270874 617.394287,742.278259 633.877747,743.741150 
	C650.448547,745.211853 666.232971,749.044556 681.409363,755.947388 
	C684.773865,757.477722 689.247375,756.983521 693.177795,756.783508 
	C709.110291,755.972839 725.037170,755.016235 740.952881,753.920715 
	C762.660461,752.426514 784.353821,750.725647 806.057434,749.172302 
	C821.641724,748.056824 837.250610,747.246033 852.816650,745.924561 
	C873.662476,744.154968 894.577698,742.725159 915.267029,739.774536 
	C927.013000,738.099365 938.341492,733.581604 949.903076,730.514282 
	C980.730957,722.335754 1011.670227,714.562378 1042.396484,706.020874 
	C1064.327881,699.924255 1085.964722,692.773132 1107.775269,686.234070 
	C1118.890869,682.901611 1129.831177,678.969360 1141.767456,679.052429 
	C1177.277344,679.299683 1199.290771,709.376099 1197.802979,737.900330 
	C1196.582886,761.295349 1182.099243,782.165405 1157.089478,789.958984 
	C1123.804077,800.331543 1090.196167,809.673523 1056.693115,819.341675 
	C1033.868652,825.928284 1011.057495,832.581177 988.109192,838.713623 
	C967.104309,844.326721 946.055481,849.925049 924.771851,854.291504 
	C911.337158,857.047546 897.430481,857.482971 883.744934,859.042175 
	C867.584534,860.883423 851.435547,862.825317 835.279175,864.702454 
	C819.619873,866.521973 803.965515,868.387634 788.294128,870.096436 
	C775.252991,871.518433 762.197327,872.821716 749.132202,874.000610 
	C745.688110,874.311340 744.498840,876.360229 744.237305,879.198486 
	C742.335693,899.832397 736.866333,919.678406 731.089111,939.461731 
	C728.063110,949.823914 725.057983,960.192139 721.926514,970.944153 
z" data-index="1" style="visibility: visible;"></path>
<path fill="#E8BF74" opacity="1.000000" stroke="none" d="
M1649.850220,1526.181152 
	C1636.024536,1512.451538 1622.525513,1498.900146 1608.856812,1485.521973 
	C1596.107910,1473.043945 1587.635376,1457.874756 1580.876831,1441.638916 
	C1567.519043,1409.550659 1554.237549,1377.430176 1541.066528,1345.264893 
	C1534.456177,1329.122070 1528.161743,1312.849854 1521.706299,1296.643555 
	C1521.403198,1295.882324 1520.922729,1295.192017 1520.282959,1294.028564 
	C1518.551514,1295.509033 1516.938110,1296.800659 1515.422241,1298.198120 
	C1497.446045,1314.770752 1479.612915,1331.501465 1461.484985,1347.906250 
	C1440.893188,1366.540527 1420.040649,1384.886963 1399.302002,1403.359009 
	C1398.928589,1403.691528 1398.592407,1404.076538 1398.183716,1404.356812 
	C1390.907104,1409.348999 1389.358765,1415.684570 1390.897705,1424.537598 
	C1395.841553,1452.975220 1399.697266,1481.600342 1404.130737,1510.128540 
	C1406.677734,1526.516846 1409.634155,1542.841187 1412.218140,1559.223999 
	C1415.242188,1578.396851 1418.032471,1597.606567 1420.982300,1616.791382 
	C1422.344482,1625.651733 1423.649414,1634.527954 1425.319336,1643.332642 
	C1430.226196,1669.205322 1423.101196,1691.138794 1403.217773,1708.295776 
	C1378.585571,1729.550415 1341.140503,1730.788696 1314.793213,1711.833862 
	C1297.673462,1699.517578 1289.338379,1682.131958 1286.036987,1661.805420 
	C1282.206909,1638.223511 1278.079468,1614.689331 1274.321289,1591.096191 
	C1271.031860,1570.446533 1268.158447,1549.730835 1264.949341,1529.067993 
	C1261.485840,1506.768188 1257.830811,1484.498413 1254.287598,1462.210938 
	C1250.875244,1440.746582 1246.973022,1419.342896 1244.251587,1397.790527 
	C1241.396240,1375.178711 1246.035400,1353.975464 1260.291870,1335.678955 
	C1264.758545,1329.946411 1270.364868,1325.094971 1275.505981,1319.895996 
	C1306.377808,1288.677856 1337.283691,1257.493286 1368.138672,1226.258667 
	C1378.286865,1215.985596 1388.376465,1205.652466 1398.317261,1195.179932 
	C1399.368164,1194.072876 1399.946289,1191.642456 1399.540283,1190.154175 
	C1388.438354,1149.446289 1377.146240,1108.790527 1365.961060,1068.105347 
	C1360.193726,1047.127930 1354.603760,1026.101807 1348.832886,1005.125427 
	C1348.196533,1002.812073 1346.894897,1000.681641 1345.385254,997.314148 
	C1339.142578,1005.066467 1333.560547,1012.019043 1327.956055,1018.953430 
	C1317.319702,1032.114014 1307.573608,1046.152222 1293.484009,1056.046753 
	C1275.527222,1068.657104 1255.335571,1071.971924 1235.092896,1064.709717 
	C1207.743286,1054.897949 1181.131104,1043.000488 1154.336304,1031.680786 
	C1122.630005,1018.286011 1091.048706,1004.594299 1059.448853,990.948425 
	C1045.879395,985.088623 1031.903076,979.924805 1018.995361,972.835876 
	C999.315308,962.027588 988.997925,944.604492 990.161499,921.931091 
	C990.981262,905.957825 997.383850,891.990356 1010.360535,881.707703 
	C1029.524414,866.522339 1050.217285,865.326355 1072.223877,874.633911 
	C1105.010864,888.501099 1137.855835,902.230713 1170.678711,916.012817 
	C1191.689941,924.835266 1212.732666,933.583618 1233.688721,942.535034 
	C1236.685059,943.814819 1238.157593,943.457947 1240.267456,940.830688 
	C1258.480225,918.152893 1277.050415,895.761597 1295.206421,873.039062 
	C1304.429443,861.496277 1313.438965,849.732117 1321.719604,837.508789 
	C1325.857910,831.400024 1328.279053,824.094238 1331.239624,817.227539 
	C1340.254150,796.317871 1353.894531,778.925842 1371.581055,764.780334 
	C1386.377197,752.946533 1403.771606,747.028076 1422.301147,744.220642 
	C1447.299072,740.433044 1471.698120,742.427307 1495.082764,752.555237 
	C1520.157959,763.415283 1540.350464,780.326965 1552.925537,804.593811 
	C1563.072266,824.174133 1572.116699,844.504761 1579.612061,865.239319 
	C1591.976318,899.442749 1602.914551,934.170471 1614.024536,968.814941 
	C1620.515625,989.056396 1626.354736,1009.513611 1632.156616,1029.967529 
	C1638.500366,1052.331543 1644.963257,1074.681763 1650.464844,1097.259644 
	C1657.348755,1125.510498 1656.809570,1153.547607 1645.381958,1180.861206 
	C1644.493530,1182.984985 1644.886108,1186.117432 1645.709961,1188.412354 
	C1654.527832,1212.975342 1663.567749,1237.458374 1672.516357,1261.974609 
	C1681.459961,1286.476929 1690.321167,1311.009521 1699.308472,1335.495850 
	C1705.778931,1353.124512 1712.554321,1370.642944 1718.876221,1388.323975 
	C1721.575684,1395.873901 1726.947632,1401.242065 1732.310913,1406.636230 
	C1742.758301,1417.144409 1753.565063,1427.295044 1764.009399,1437.805908 
	C1792.537598,1466.515991 1820.947998,1495.343140 1849.418579,1524.110474 
	C1863.215820,1538.051514 1877.184814,1551.826050 1890.812622,1565.930542 
	C1901.779297,1577.280884 1912.868408,1588.583740 1922.934204,1600.711792 
	C1931.166626,1610.631104 1934.719727,1622.643799 1935.315918,1635.816895 
	C1935.921631,1649.203491 1934.132812,1661.894653 1926.861450,1673.049927 
	C1913.609497,1693.380493 1895.402344,1705.902710 1870.275879,1707.092041 
	C1846.902954,1708.198242 1827.897827,1699.222290 1811.586548,1683.267212 
	C1781.251953,1653.594849 1750.949097,1623.889648 1720.560669,1594.272339 
	C1702.803711,1576.966064 1684.916748,1559.792969 1667.067139,1542.581909 
	C1661.447388,1537.163208 1655.759521,1531.815308 1649.850220,1526.181152 
z" data-index="2" style="visibility: visible; opacity: 1;"></path>
<path fill="#E9BF76" opacity="1.000000" stroke="none" d="
M618.778625,509.803833 
	C641.423096,487.491974 668.377869,475.326111 699.535095,471.772278 
	C718.296387,469.632385 736.524963,472.281006 754.000366,478.356934 
	C788.775330,490.447601 813.940186,513.474548 829.718079,547.059265 
	C843.173401,575.700012 844.550476,605.273376 836.870178,635.141846 
	C829.958618,662.021118 815.374451,684.569153 793.178772,701.964050 
	C771.780518,718.734253 747.640686,727.563965 720.611511,729.138062 
	C690.295410,730.903564 662.072021,724.470886 636.925476,707.171631 
	C609.791687,688.505371 592.287048,663.061584 584.788452,630.751831 
	C582.058960,618.990845 580.426575,607.219238 580.982544,595.193970 
	C581.631287,581.164734 584.602539,567.675476 589.574646,554.442871 
	C595.977417,537.402710 606.622375,523.379150 618.778625,509.803833 
z" data-index="3" style="opacity: 1;"></path>
<path fill="#E9BF76" opacity="1.000000" stroke="none" d="
M1472.926025,641.858826 
	C1466.848267,660.853271 1457.841675,677.776306 1444.307007,692.003784 
	C1420.986938,716.517395 1392.065063,728.993103 1358.513672,731.125610 
	C1325.154175,733.245972 1294.678955,724.887268 1268.747681,703.638428 
	C1243.713379,683.124573 1228.017090,656.669434 1222.852295,624.282104 
	C1218.821777,599.007324 1221.379028,574.442017 1231.308350,551.015930 
	C1240.283325,529.841858 1254.124512,511.826813 1272.788696,498.269867 
	C1300.059326,478.461426 1330.931396,469.343689 1364.465820,473.361786 
	C1390.779053,476.514648 1414.796387,486.473022 1435.093140,504.365387 
	C1460.798096,527.025330 1474.511353,555.935547 1478.640259,589.334229 
	C1480.809570,606.882629 1479.261597,624.565125 1472.926025,641.858826 
z" data-index="4" style="visibility: visible;"></path>
<path fill="#E5C079" opacity="1.000000" stroke="none" d="
M1081.287842,424.204865 
	C1075.322510,433.440552 1069.677124,442.433533 1063.694458,451.196289 
	C1062.031250,453.632477 1062.558716,455.229492 1063.779541,457.428619 
	C1069.109741,467.029846 1074.217163,476.754883 1079.548340,486.355652 
	C1082.074829,490.905731 1081.962158,494.983246 1078.920410,499.326904 
	C1070.634399,511.159729 1062.330811,522.994507 1054.564941,535.166992 
	C1052.702515,538.086121 1051.787476,542.505432 1052.348267,545.920837 
	C1054.869751,561.276245 1055.745605,576.565308 1054.210938,592.104675 
	C1053.346313,600.859192 1053.964844,609.754333 1053.764893,618.582764 
	C1053.667725,622.867859 1056.533691,622.662048 1059.454590,622.959534 
	C1069.185547,623.950500 1078.988403,624.606628 1088.594482,626.332642 
	C1096.213013,627.701538 1103.034912,631.372009 1107.648926,638.052307 
	C1108.772949,639.679749 1109.751709,641.482117 1110.413940,643.340637 
	C1112.930786,650.403687 1111.073364,653.049561 1103.715088,653.050781 
	C1060.388550,653.058228 1017.061829,652.980957 973.736084,653.152039 
	C969.078308,653.170471 967.690674,651.781433 967.829590,647.232361 
	C968.080444,639.015076 972.689758,633.866394 979.334167,630.462952 
	C990.662659,624.660217 1002.896545,622.748840 1015.589722,622.915588 
	C1025.948975,623.051758 1024.914307,624.365479 1024.919312,613.662354 
	C1024.921875,608.163208 1024.428955,602.615479 1024.986572,597.174438 
	C1026.393555,583.443298 1023.614258,570.881653 1016.245850,559.180481 
	C1014.052979,555.697998 1013.004211,551.515503 1011.050659,547.856873 
	C1008.510742,543.100220 1009.387695,538.634216 1011.237854,533.991821 
	C1015.794434,522.558350 1020.152405,511.045258 1024.766968,499.635681 
	C1026.311646,495.816406 1025.839355,493.248535 1022.888794,489.930908 
	C1015.283997,481.380371 1008.342773,472.233643 1001.263794,463.225098 
	C999.085205,460.452728 998.744690,457.518738 1000.407959,453.961609 
	C1004.487915,445.236267 1008.073547,436.279144 1011.828735,427.402893 
	C1012.649780,425.462097 1013.348267,423.469452 1014.316650,420.944031 
	C1006.585999,418.920105 999.499878,419.753693 992.713623,421.631653 
	C983.601746,424.153137 974.773499,427.679993 965.728943,430.468750 
	C955.484680,433.627411 945.135864,436.446991 934.420654,439.532562 
	C935.767273,442.629059 937.369873,446.589722 939.187805,450.448944 
	C949.741455,472.853485 960.264221,495.273376 971.000671,517.590332 
	C973.198059,522.157959 976.757812,526.094849 978.755493,530.725464 
	C980.164978,533.992676 981.097107,538.185791 980.349365,541.544128 
	C976.241638,559.994507 964.235901,571.423523 946.869568,578.026611 
	C925.801331,586.037109 898.316528,580.490295 883.081665,564.461060 
	C876.467957,557.502441 871.706604,549.328796 869.598145,539.814941 
	C868.713745,535.824219 869.068848,532.333252 872.979675,529.789429 
	C874.228638,528.976990 874.971741,527.187073 875.636169,525.705383 
	C886.656616,501.128876 897.668213,476.548157 908.574463,451.920868 
	C910.709412,447.100128 912.392883,442.079437 914.218079,437.324127 
	C909.825378,435.399078 905.738220,434.047668 902.115784,431.908875 
	C897.612976,429.250275 896.990723,424.795074 899.752869,419.760284 
	C902.265869,415.179565 905.911255,413.664917 910.602539,416.097260 
	C924.787415,423.451874 938.487854,421.000305 952.321167,414.980530 
	C969.249084,407.614014 986.354004,400.702850 1005.024719,398.975403 
	C1008.041016,398.696381 1010.768311,398.124207 1011.424194,394.049377 
	C1011.658386,392.594330 1014.246582,391.066620 1016.050659,390.505920 
	C1016.956299,390.224396 1019.026123,391.752441 1019.689453,392.949646 
	C1023.307556,399.480042 1026.449829,406.277802 1030.157227,412.753815 
	C1032.927246,417.592560 1031.843750,421.920959 1029.764160,426.492096 
	C1026.259521,434.195618 1023.139038,442.081665 1019.422852,449.678589 
	C1016.716064,455.212006 1018.175598,459.268646 1021.965271,463.643860 
	C1028.590454,471.292664 1034.630737,479.445007 1041.122925,487.213379 
	C1043.995850,490.650970 1043.845825,494.123627 1042.402100,497.886993 
	C1037.763672,509.978424 1033.140869,522.076050 1028.428101,534.138550 
	C1026.366455,539.415527 1028.231079,544.778625 1034.301636,548.709595 
	C1030.980957,535.045898 1041.915771,528.007568 1047.280396,518.510498 
	C1051.604370,510.855927 1056.934692,503.770508 1061.804932,496.423615 
	C1063.640625,493.654541 1064.212646,491.263550 1062.215088,487.833496 
	C1057.119263,479.083618 1052.796997,469.886719 1048.031250,460.940002 
	C1045.048706,455.340698 1045.753052,450.535065 1049.229492,445.141052 
	C1058.227783,431.179962 1066.731201,416.895111 1075.204956,402.604797 
	C1076.882446,399.775787 1078.518311,398.894196 1081.574341,399.949860 
	C1096.626709,405.149384 1111.843994,409.904846 1126.733887,415.529755 
	C1137.609863,419.638367 1148.450439,421.632996 1159.861572,419.014191 
	C1162.417480,418.427643 1164.793213,417.074707 1167.271240,416.125092 
	C1172.707153,414.041901 1176.086304,415.281586 1178.355469,420.149017 
	C1180.816162,425.426849 1179.460571,430.627411 1174.709106,433.023804 
	C1172.355957,434.210480 1169.774780,435.135803 1167.191528,435.632782 
	C1162.680542,436.500702 1162.512573,438.820099 1164.175171,442.385529 
	C1169.722778,454.282104 1175.199097,466.212250 1180.646118,478.155334 
	C1187.263672,492.664703 1193.746094,507.236389 1200.470337,521.695862 
	C1201.926514,524.826904 1203.895752,527.817261 1206.107910,530.473206 
	C1208.718750,533.607544 1209.229980,536.734131 1208.327026,540.643005 
	C1203.359253,562.150330 1185.220581,578.344482 1163.307739,580.939087 
	C1145.555908,583.040955 1129.028687,579.955261 1114.861572,568.772339 
	C1105.256958,561.190796 1098.370117,551.331787 1096.954346,538.738525 
	C1096.676636,536.267822 1098.434082,533.410156 1099.695312,530.958618 
	C1102.101807,526.281677 1105.121338,521.908081 1107.367432,517.162903 
	C1116.047729,498.823669 1124.518921,480.385468 1133.077515,461.988495 
	C1136.649170,454.310852 1140.244629,446.644318 1144.041748,438.518219 
	C1137.647217,437.278198 1131.687500,436.732178 1126.141724,434.919525 
	C1114.776978,431.204865 1103.706177,426.594269 1092.356689,422.827545 
	C1088.923706,421.688171 1084.545044,418.153687 1081.287842,424.204865 
M931.139404,461.413666 
	C928.995850,457.131897 926.852295,452.850128 924.030945,447.214447 
	C911.503357,475.532990 899.499023,502.668854 887.326294,530.185181 
	C913.187439,530.185181 937.830078,530.185181 962.965027,530.185181 
	C956.711304,516.755981 950.820862,504.170135 944.986633,491.558319 
	C940.449707,481.750977 935.982788,471.911285 931.139404,461.413666 
M1139.500122,531.020569 
	C1156.212280,531.020569 1172.924438,531.020569 1190.750244,531.020569 
	C1178.441040,502.603210 1166.120605,475.700684 1153.530640,448.213806 
	C1152.116333,449.710449 1151.654785,450.009918 1151.459961,450.432343 
	C1139.977661,475.339691 1128.505981,500.251923 1117.066406,525.178894 
	C1115.221191,529.199707 1116.049072,530.725220 1120.516846,530.898193 
	C1126.503662,531.130005 1132.505127,530.989624 1139.500122,531.020569 
z" data-index="5" style="visibility: visible; opacity: 1;"></path>
<path fill="#E6C178" opacity="1.000000" stroke="none" d="
M1303.592041,437.318390 
	C1285.978638,431.440094 1269.250366,424.541290 1254.341187,413.966797 
	C1250.201416,411.030640 1246.112061,407.553314 1243.177490,403.476349 
	C1234.265503,391.095001 1237.774292,377.188446 1251.074829,369.603058 
	C1261.892822,363.433441 1273.840942,361.204865 1285.944824,360.150940 
	C1299.182617,358.998291 1312.560791,357.617432 1325.765747,358.351227 
	C1346.793213,359.519745 1367.943237,361.142639 1388.645386,364.808807 
	C1412.299805,368.997711 1435.853516,374.541107 1458.829102,381.537903 
	C1478.449463,387.512939 1497.967896,395.012054 1513.831909,408.849701 
	C1521.251343,415.321442 1527.063965,423.344910 1523.869995,434.235077 
	C1521.298828,443.002258 1514.898804,448.540649 1506.677612,451.797516 
	C1490.893677,458.050507 1474.349121,460.606903 1457.446899,461.033051 
	C1424.387085,461.866547 1391.639160,458.773254 1359.364502,451.801025 
	C1340.732910,447.776062 1322.417358,442.288635 1303.592041,437.318390 
M1404.523438,433.947235 
	C1428.021118,436.670380 1451.538086,437.919342 1475.009399,433.916351 
	C1482.356445,432.663422 1489.574097,430.652344 1496.851074,428.988251 
	C1496.820312,428.425079 1496.789673,427.861908 1496.759033,427.298737 
	C1492.671753,424.798187 1488.693848,422.094147 1484.479736,419.829681 
	C1455.139038,404.063507 1423.354126,395.876282 1390.873657,389.925537 
	C1358.712036,384.033295 1326.335083,381.045624 1293.666138,384.088898 
	C1284.545288,384.938568 1275.552124,387.159729 1266.500366,388.751709 
	C1266.414185,389.490479 1266.328003,390.229248 1266.241821,390.967987 
	C1270.892456,394.006897 1275.291992,397.551575 1280.233521,400.004456 
	C1319.139771,419.316467 1360.927124,428.284485 1404.523438,433.947235 
z" data-index="6" style="opacity: 1;"></path>
<path fill="#E6C079" opacity="1.000000" stroke="none" d="
M549.184326,441.930847 
	C545.803467,439.252777 542.100952,437.216248 539.836060,434.126038 
	C533.569092,425.575562 534.495056,413.465942 542.774841,406.036224 
	C549.867126,399.672089 557.755310,393.838562 566.129211,389.324280 
	C593.909241,374.348450 624.135315,366.325134 654.864563,360.190277 
	C688.864014,353.402527 723.195007,349.809113 757.925293,350.937531 
	C773.622620,351.447540 789.005737,353.885986 803.905334,358.920807 
	C810.642578,361.197479 816.712646,364.742767 820.705933,370.841949 
	C826.447021,379.610565 824.711182,390.842407 816.181885,400.050110 
	C808.113281,408.760620 797.770264,414.156799 787.140198,418.965240 
	C751.392578,435.135376 713.661438,443.883820 674.942017,449.127655 
	C651.147766,452.350189 627.291138,453.665710 603.317261,453.094757 
	C584.741638,452.652374 566.572937,450.053040 549.184326,441.930847 
M754.085938,375.280334 
	C746.281555,375.498352 738.439453,375.303864 730.680176,376.014252 
	C710.041321,377.903839 689.273132,379.183563 668.861572,382.554169 
	C641.649841,387.047668 614.895264,394.001617 589.533508,405.178192 
	C580.387878,409.208496 571.868042,414.658936 563.062622,419.461365 
	C563.241333,420.068909 563.419983,420.676422 563.598694,421.283966 
	C566.234924,422.147583 568.814575,423.322449 571.518433,423.814514 
	C578.688354,425.119446 585.904724,426.177917 593.115601,427.247070 
	C611.996399,430.046661 631.013855,429.649567 649.809692,427.510254 
	C668.716370,425.358307 687.463867,421.602997 706.178223,418.013489 
	C733.875610,412.701019 760.719727,404.619812 785.627258,391.056213 
	C789.401489,389.000946 792.581360,385.854370 796.881226,382.566315 
	C793.369568,381.420593 791.228088,380.368103 788.982239,380.048798 
	C777.664185,378.439484 766.318970,377.021301 754.085938,375.280334 
z" data-index="7" style="opacity: 1;"></path>

<path fill="#FDF8DD" opacity="1.000000" stroke="none" d="
M1139.000244,531.014771 
	C1132.505127,530.989624 1126.503662,531.130005 1120.516846,530.898193 
	C1116.049072,530.725220 1115.221191,529.199707 1117.066406,525.178894 
	C1128.505981,500.251923 1139.977661,475.339691 1151.459961,450.432343 
	C1151.654785,450.009918 1152.116333,449.710449 1153.530640,448.213806 
	C1166.120605,475.700684 1178.441040,502.603210 1190.750244,531.020569 
	C1172.924438,531.020569 1156.212280,531.020569 1139.000244,531.014771 
M1134.515259,496.929047 
	C1133.706543,499.078125 1133.096924,501.330017 1132.050537,503.356354 
	C1129.272095,508.737152 1126.207642,513.970703 1123.441772,519.357605 
	C1120.896484,524.314697 1122.027588,526.538696 1127.424927,526.977173 
	C1133.861694,527.500122 1140.323730,527.868713 1146.779785,527.964905 
	C1157.422485,528.123596 1168.069458,528.039490 1178.714355,527.998840 
	C1184.020508,527.978577 1185.237427,526.061279 1183.087524,521.187500 
	C1180.783325,515.963989 1178.335205,510.802948 1176.095459,505.552612 
	C1175.203369,503.460999 1174.962769,501.076447 1173.978149,499.041840 
	C1168.409424,487.534851 1162.784424,476.052795 1156.949463,464.679810 
	C1156.190674,463.200928 1154.158813,461.630127 1152.627441,461.534973 
	C1151.459839,461.462402 1149.708496,463.438934 1148.988159,464.887451 
	C1146.796631,469.293671 1145.031128,473.909454 1143.002563,478.399658 
	C1140.316528,484.345367 1137.538696,490.249573 1134.515259,496.929047 
z" data-index="9" style="visibility: visible; opacity: 1;"></path>

<path fill="#FCF6DA" opacity="1.000000" stroke="none" d="
M754.534607,375.408173 
	C766.318970,377.021301 777.664185,378.439484 788.982239,380.048798 
	C791.228088,380.368103 793.369568,381.420593 796.881226,382.566315 
	C792.581360,385.854370 789.401489,389.000946 785.627258,391.056213 
	C760.719727,404.619812 733.875610,412.701019 706.178223,418.013489 
	C687.463867,421.602997 668.716370,425.358307 649.809692,427.510254 
	C631.013855,429.649567 611.996399,430.046661 593.115601,427.247070 
	C585.904724,426.177917 578.688354,425.119446 571.518433,423.814514 
	C568.814575,423.322449 566.234924,422.147583 563.598694,421.283966 
	C563.419983,420.676422 563.241333,420.068909 563.062622,419.461365 
	C571.868042,414.658936 580.387878,409.208496 589.533508,405.178192 
	C614.895264,394.001617 641.649841,387.047668 668.861572,382.554169 
	C689.273132,379.183563 710.041321,377.903839 730.680176,376.014252 
	C738.439453,375.303864 746.281555,375.498352 754.534607,375.408173 
M665.326233,385.950562 
	C657.156006,387.194336 649.336121,389.217834 641.762512,392.907776 
	C637.451416,395.008209 631.776367,394.097412 627.051086,395.598694 
	C612.440247,400.240784 597.950317,405.277405 583.514221,410.442535 
	C580.831848,411.402283 578.253723,413.326233 576.273743,415.417175 
	C573.378601,418.474518 575.142700,422.472931 579.314148,422.984436 
	C596.208618,425.055908 613.129517,426.700378 630.189697,426.010712 
	C636.259094,425.765350 642.388550,426.010223 648.387390,425.234009 
	C659.336304,423.817230 670.210876,421.821686 681.111572,420.037689 
	C690.548523,418.493256 700.143921,417.548767 709.368469,415.171753 
	C720.021301,412.426727 730.211975,407.903290 740.849731,405.080597 
	C750.692505,402.468811 760.733521,400.795074 769.917297,395.988129 
	C775.166565,393.240540 780.865051,391.358948 786.168213,388.702026 
	C787.669128,387.950043 788.489929,385.840454 789.622620,384.353485 
	C788.176025,383.526581 786.804077,382.179169 785.270508,381.959503 
	C776.936218,380.765778 768.577820,379.181549 760.198303,378.984924 
	C744.979980,378.627838 729.728027,378.825897 714.515259,379.428375 
	C704.833313,379.811768 695.175171,381.173615 685.547546,382.416168 
	C679.046509,383.255188 672.617310,384.650757 665.326233,385.950562 
z" data-index="11" style="opacity: 1;"></path>

<path fill="#FFFEFD" opacity="1.000000" stroke="none" d="
M665.741089,385.873993 
	C672.617310,384.650757 679.046509,383.255188 685.547546,382.416168 
	C695.175171,381.173615 704.833313,379.811768 714.515259,379.428375 
	C729.728027,378.825897 744.979980,378.627838 760.198303,378.984924 
	C768.577820,379.181549 776.936218,380.765778 785.270508,381.959503 
	C786.804077,382.179169 788.176025,383.526581 789.622620,384.353485 
	C788.489929,385.840454 787.669128,387.950043 786.168213,388.702026 
	C780.865051,391.358948 775.166565,393.240540 769.917297,395.988129 
	C760.733521,400.795074 750.692505,402.468811 740.849731,405.080597 
	C730.211975,407.903290 720.021301,412.426727 709.368469,415.171753 
	C700.143921,417.548767 690.548523,418.493256 681.111572,420.037689 
	C670.210876,421.821686 659.336304,423.817230 648.387390,425.234009 
	C642.388550,426.010223 636.259094,425.765350 630.189697,426.010712 
	C613.129517,426.700378 596.208618,425.055908 579.314148,422.984436 
	C575.142700,422.472931 573.378601,418.474518 576.273743,415.417175 
	C578.253723,413.326233 580.831848,411.402283 583.514221,410.442535 
	C597.950317,405.277405 612.440247,400.240784 627.051086,395.598694 
	C631.776367,394.097412 637.451416,395.008209 641.762512,392.907776 
	C649.336121,389.217834 657.156006,387.194336 665.741089,385.873993 
z" data-index="13" style="opacity: 1; stroke-width: 2px; stroke: rgb(13, 153, 255); visibility: hidden;"></path>
</svg>