<?xml version="1.0" encoding="UTF-8"?>
<svg version="1.1" xmlns="http://www.w3.org/2000/svg" width="1024" height="1024">
<path d="M0 0 C337.92 0 675.84 0 1024 0 C1024 337.92 1024 675.84 1024 1024 C686.08 1024 348.16 1024 0 1024 C0 686.08 0 348.16 0 0 Z " fill="#FEFEFE" transform="translate(0,0)"/>
<path d="M0 0 C5.20493138 4.13734675 6.46668492 8.43718709 8.11328125 14.60546875 C8.37255905 15.52588455 8.63183685 16.44630035 8.89897156 17.39460754 C9.71908845 20.32148518 10.51570284 23.25419871 11.3125 26.1875 C11.86637358 28.17163349 12.42169684 30.1553629 12.97851562 32.13867188 C13.98675784 35.75575692 14.99295351 39.37328928 15.9777832 42.99682617 C16.17588089 43.72342941 16.37397858 44.45003265 16.57807922 45.19865417 C17 47 17 47 17 49 C17.99 48.938125 18.98 48.87625 20 48.8125 C25.45130625 48.86745268 29.92841889 50.08683392 33.9921875 53.83984375 C39.68846758 60.1861143 41.48619711 64.37329256 41.30859375 72.9609375 C40.78152702 78.15154405 39.2170302 82.16489517 35.140625 85.5390625 C33.1875 87 33.1875 87 31.29296875 88.1875 C29.44836056 90.77329517 30.16858247 92.79120954 30.60441589 95.80419922 C31.21087392 99.17051496 32.10744246 102.4399709 33.06640625 105.71875 C33.47355234 107.16008705 33.88044576 108.6014955 34.28710938 110.04296875 C34.92413629 112.27538601 35.56445723 114.5067643 36.2097168 116.73681641 C36.83772989 118.91581337 37.45271242 121.09818382 38.06640625 123.28125 C38.26013321 123.936698 38.45386017 124.592146 38.65345764 125.26745605 C40.06875356 130.34017819 41.14887282 136.03944313 39.1875 141.09375 C37.40574694 143.20372073 35.78467073 144.80857831 33.0625 145.47265625 C29.6368035 145.62188167 27.65750051 145.41171203 24.69499207 143.55665588 C22.00226247 142.00130683 19.83466166 141.27499589 16.81762695 140.58959961 C15.80920242 140.35603256 14.80077789 140.12246552 13.76179504 139.88182068 C12.68153549 139.64109329 11.60127594 139.40036591 10.48828125 139.15234375 C9.36487839 138.8949794 8.24147552 138.63761505 7.08403015 138.37245178 C3.49533745 137.55256902 -0.09601407 136.74504878 -3.6875 135.9375 C-6.08546341 135.39074945 -8.483252 134.84323159 -10.88085938 134.29492188 C-20.56724589 132.08787215 -30.24713616 129.89606831 -40 128 C-39.00968926 131.67583306 -37.98069639 135.33880329 -36.9375 139 C-36.66228516 140.02996094 -36.38707031 141.05992187 -36.10351562 142.12109375 C-34.28577852 148.39328552 -32.19641116 152.70331038 -27.58203125 157.36669922 C-22.31452496 162.80491173 -22.62777026 169.03117651 -22.50390625 176.20703125 C-23.71203273 185.44396678 -28.66130411 193.25793188 -33.375 201.125 C-34.63555145 203.25773284 -35.89596432 205.3905476 -37.15625 207.5234375 C-37.79691406 208.60206055 -38.43757813 209.68068359 -39.09765625 210.79199219 C-42.04640814 215.7646051 -44.96214682 220.75629874 -47.875 225.75 C-48.72360596 227.2026123 -48.72360596 227.2026123 -49.58935547 228.68457031 C-54.95333765 237.88296748 -60.23437357 247.12829541 -65.49560547 256.38574219 C-67.32251979 259.59509793 -69.15820537 262.79916398 -71 266 C-71.54785156 266.95753174 -72.09570312 267.91506348 -72.66015625 268.90161133 C-73.17449219 269.78357178 -73.68882812 270.66553223 -74.21875 271.57421875 C-74.66154297 272.33822998 -75.10433594 273.10224121 -75.56054688 273.8894043 C-80.08723737 280.52665656 -87.11044231 285.41373972 -95 287 C-97.05919961 287.14334455 -99.1235293 287.22040902 -101.1875 287.25 C-102.25355469 287.27578125 -103.31960938 287.3015625 -104.41796875 287.328125 C-113.06018908 286.53647123 -120.6448487 282.37793061 -128.2734375 278.4921875 C-129.31899811 277.96609894 -130.36455872 277.44001038 -131.44180298 276.89797974 C-134.75578346 275.22935905 -138.06556263 273.55261052 -141.375 271.875 C-144.70655977 270.19168053 -148.03897781 268.51009218 -151.37246704 266.83059692 C-153.44046266 265.78811691 -155.50721856 264.74317326 -157.57260132 263.69552612 C-158.50432159 263.22478668 -159.43604187 262.75404724 -160.39599609 262.26904297 C-161.21490326 261.85395477 -162.03381042 261.43886658 -162.87753296 261.01119995 C-165.10407349 259.89722421 -165.10407349 259.89722421 -168 259 C-168.12955078 260.11568359 -168.12955078 260.11568359 -168.26171875 261.25390625 C-169.36475095 269.82517485 -171.03715896 278.17713312 -172.97143555 286.59594727 C-174.65925479 294.05735558 -176.03295267 301.561623 -177.38432312 309.08940125 C-178.62834891 316.00294172 -179.92559974 322.90446526 -181.26171875 329.80078125 C-181.45618591 330.80496094 -181.65065308 331.80914063 -181.85101318 332.84375 C-182.25452337 334.92544072 -182.65827491 337.00708467 -183.06225586 339.08868408 C-187.21143277 360.48221934 -191.22786414 381.8975194 -195.1315918 403.3371582 C-195.31022263 404.31722336 -195.48885345 405.29728851 -195.67289734 406.30705261 C-196.00170071 408.11256094 -196.3296746 409.91822065 -196.65657043 411.72407532 C-197.70694728 417.4985237 -198.84851351 423.24256756 -200 429 C-244.22 429 -288.44 429 -334 429 C-333.36186638 422.61866381 -332.66076409 416.46606679 -331.50390625 410.19140625 C-331.35504974 409.36805786 -331.20619324 408.54470947 -331.05282593 407.69641113 C-330.56061949 404.98425191 -330.06192949 402.27333779 -329.5625 399.5625 C-329.38937286 398.61559296 -329.21624573 397.66868591 -329.03787231 396.69308472 C-325.72619991 378.58688192 -322.20373432 360.52339816 -318.6340332 342.46655273 C-316.41125729 331.22020764 -314.22760528 319.9694266 -312.13598633 308.69799805 C-308.99425149 291.82483517 -305.69499602 274.97997568 -302.34404182 258.14722824 C-301.56677285 254.24204395 -300.79443429 250.33605677 -300.03527832 246.42730713 C-299.31207749 242.70555371 -298.57340048 238.98717359 -297.82396889 235.27061653 C-297.54861864 233.89234064 -297.2784156 232.51302365 -297.01405907 231.13259697 C-294.10917925 216.00547311 -288.96615127 203.80388129 -279 192 C-278.18789063 191.01773438 -278.18789063 191.01773438 -277.359375 190.015625 C-263.02728138 174.23584516 -241.47866917 167.58280519 -220.9140625 166.50732422 C-217.10544567 166.33437932 -213.29653304 166.19706289 -209.48583984 166.07910156 C-207.42360475 166.01347947 -205.36203394 165.92735525 -203.30078125 165.8359375 C-189.44709825 165.43753093 -178.52648243 170.85794449 -167.27734375 178.45703125 C-165.93931372 179.35493091 -164.60091967 180.2522883 -163.26220703 181.14916992 C-162.21628387 181.85014297 -162.21628387 181.85014297 -161.14923096 182.5652771 C-157.54535571 184.97105035 -153.92341109 187.34916002 -150.30078125 189.7265625 C-149.56493805 190.20969406 -148.82909485 190.69282562 -148.07095337 191.19059753 C-145.81841319 192.66915527 -143.56550797 194.1471552 -141.3125 195.625 C-131.51897459 202.04973743 -121.73265492 208.48328106 -112 215 C-109.06365044 212.22185114 -106.78196956 209.40408528 -104.56640625 206.02734375 C-103.92396973 205.05466553 -103.2815332 204.0819873 -102.61962891 203.07983398 C-101.94077637 202.04286377 -101.26192383 201.00589355 -100.5625 199.9375 C-99.12466349 197.75977884 -97.68584895 195.58270313 -96.24609375 193.40625 C-95.53050293 192.3234375 -94.81491211 191.240625 -94.07763672 190.125 C-91.13561206 185.69986303 -88.13468308 181.31675285 -85.125 176.9375 C-84.60421875 176.17123291 -84.0834375 175.40496582 -83.546875 174.61547852 C-81.06133428 170.96228425 -78.53847802 167.35495147 -75.90234375 163.80859375 C-71.09753103 157.63532543 -71.09753103 157.63532543 -68.69140625 150.390625 C-69.15267174 147.9804089 -69.88275414 146.18109394 -71 144 C-71.350625 143.16082031 -71.70125 142.32164062 -72.0625 141.45703125 C-72.98430496 139.27113345 -73.96156429 137.13232188 -75 135 C-76.08796875 134.99742187 -77.1759375 134.99484375 -78.296875 134.9921875 C-88.8554611 134.78735358 -97.51586924 133.4927554 -105.890625 126.3984375 C-114.43009689 117.29829321 -116.66805979 106.45041442 -116.40234375 94.41015625 C-115.86220638 85.46232907 -111.00069579 77.75402286 -104.40136719 71.86328125 C-95.14319052 64.67962892 -83.20048764 61.4473942 -72.18896484 57.89819336 C-63.84756136 55.19214919 -57.1693919 52.50279233 -51 46 C-49.80890625 44.96552734 -49.80890625 44.96552734 -48.59375 43.91015625 C-43.14610395 39.10281188 -37.95884892 34.06430132 -32.8125 28.9375 C-32.14734375 28.27693604 -31.4821875 27.61637207 -30.796875 26.93579102 C-20.95262272 17.3529274 -20.95262272 17.3529274 -13.5625 5.9375 C-10.62874718 0.42204471 -6.26066133 -1.77210525 0 0 Z " fill="#E6B851" transform="translate(391,413)"/>
<path d="M0 0 C1.73878056 -0.00542682 3.47755652 -0.01255261 5.21632385 -0.02124023 C9.9189073 -0.03941135 14.62113808 -0.03243145 19.32372737 -0.01972389 C24.25713311 -0.00956233 29.19050964 -0.01899846 34.12391663 -0.02526855 C42.40818677 -0.03253647 50.69231407 -0.02298046 58.9765625 -0.00390625 C68.53730252 0.01785363 78.09770117 0.01081407 87.6584329 -0.01121187 C95.88378526 -0.02939887 104.10903521 -0.03190786 112.33440119 -0.0214572 C117.23966821 -0.01523946 122.1447751 -0.01433897 127.05003166 -0.02760315 C131.6639245 -0.03920889 136.27737993 -0.03105011 140.89122581 -0.00802612 C142.57859829 -0.00276386 144.26600795 -0.00420999 145.95336533 -0.01307678 C157.24597609 -0.06691931 167.65512296 0.51950002 176.27541447 8.7289896 C183.2511515 16.92816478 183.51576394 25.74573416 183.42822266 36.01391602 C183.43336994 37.55742716 183.4406573 39.10093241 183.4499054 40.64442444 C183.46832335 44.80981713 183.45554286 48.97456468 183.4358151 53.13993001 C183.41935028 57.51325093 183.4282522 61.8865335 183.43333435 66.25987244 C183.43784612 73.60084256 183.42204135 80.94155712 183.39404297 88.2824707 C183.36198323 96.75321406 183.36201442 105.22349697 183.37925774 113.69427305 C183.39515458 121.86567742 183.38836977 130.036914 183.37132072 138.20831108 C183.36447252 141.67582133 183.3654596 145.14319618 183.37286568 148.61070442 C183.38056114 152.6977108 183.36829698 156.78419689 183.34101677 160.87111473 C183.33416631 162.36539288 183.3339989 163.85971993 183.3412323 165.35399628 C183.38110399 174.66811095 182.62733846 181.98186313 177.22680664 189.78710938 C170.03555671 196.92415391 162.65099559 198.85778384 152.72998047 198.85717773 C150.05788642 198.83292094 147.38740641 198.78773364 144.71586037 198.72834587 C141.82481419 198.66880278 138.93522262 198.64277192 136.04362488 198.62660217 C127.82946635 198.57858489 119.61686495 198.5022078 111.40429688 198.3293457 C106.36061871 198.2255887 101.31978791 198.18672655 96.27509117 198.18774605 C94.36971082 198.17601866 92.46430578 198.14079225 90.55985451 198.08015251 C79.90896133 197.74984124 72.5708853 198.33827351 64.45214844 205.72290039 C62.74073742 207.39150325 61.07959357 209.09187938 59.44095421 210.83188057 C56.71887154 213.62328476 53.72476841 216.08370943 50.73461914 218.58007812 C49.57591052 219.56961088 48.41821782 220.56033563 47.26196289 221.55273438 C46.69074707 222.0414502 46.11953125 222.53016602 45.53100586 223.03369141 C43.2017603 225.0270953 40.87409752 227.02234187 38.54663086 229.01782227 C37.38833158 230.01076567 36.22980608 231.00344525 35.07104492 231.99584961 C32.01307052 234.61518368 28.95911209 237.23902852 25.91040039 239.86914062 C25.27424805 240.41699219 24.6380957 240.96484375 23.98266602 241.52929688 C22.76274975 242.58002767 21.54394178 243.63204703 20.32641602 244.68554688 C13.00675538 250.98405907 13.00675538 250.98405907 6.73461914 250.84570312 C3.77824961 250.34502764 2.52878154 248.87263898 0.79711914 246.51757812 C-0.38983504 244.14366976 -0.32363919 242.71512861 -0.31640625 240.06787109 C-0.31633072 239.14706757 -0.31625519 238.22626404 -0.31617737 237.27755737 C-0.31101608 236.2816861 -0.3058548 235.28581482 -0.30053711 234.25976562 C-0.29912216 233.24157745 -0.29770721 232.22338928 -0.29624939 231.17434692 C-0.29063986 227.91372777 -0.27808574 224.65317662 -0.26538086 221.39257812 C-0.26036709 219.18554786 -0.25580397 216.97851653 -0.25170898 214.77148438 C-0.24066734 209.35349232 -0.22391991 203.93554008 -0.20288086 198.51757812 C-1.43627197 198.54078125 -2.66966309 198.56398438 -3.94042969 198.58789062 C-5.57608441 198.60665755 -7.21174572 198.62485676 -8.84741211 198.64257812 C-9.65827271 198.65933594 -10.4691333 198.67609375 -11.30456543 198.69335938 C-19.12459886 198.75685622 -24.41659783 196.97147753 -30.24975586 191.65039062 C-38.41468988 182.97936566 -38.64840892 174.75208243 -38.62280273 163.37768555 C-38.63014919 161.83624153 -38.63873709 160.294803 -38.64846802 158.75337219 C-38.67063425 154.57964569 -38.6736171 150.4061169 -38.6717205 146.23233962 C-38.67160056 142.74102708 -38.68017477 139.24975605 -38.68849802 135.7584551 C-38.70771518 127.51692024 -38.71062236 119.27548666 -38.70385742 111.03393555 C-38.69722049 102.54904187 -38.72007072 94.06458334 -38.75717115 85.5797779 C-38.787924 78.28015244 -38.79922206 70.98066654 -38.79533434 63.68097764 C-38.79327229 59.3278109 -38.79866127 54.97498272 -38.82322693 50.62187767 C-38.84558371 46.52502811 -38.84354291 42.42888289 -38.82329941 38.33202934 C-38.81990485 36.83492733 -38.82491104 35.33777708 -38.83928299 33.8407402 C-38.92469665 24.27819529 -38.16468141 16.21639146 -31.64571381 8.72911358 C-22.35941905 0.02593002 -12.03777431 -0.06317358 0 0 Z " fill="#FEFEFE" transform="translate(436.202880859375,191.482421875)"/>
<path d="M0 0 C2.93992779 0.01605189 5.8784736 0.00008542 8.81835938 -0.01904297 C33.70024714 -0.04700191 54.29495231 4.62941721 72.88867188 22.14111328 C89.40278506 39.48629385 92.89337808 59.63339642 92.91210938 82.46142578 C92.91854699 84.31127014 92.92527605 86.16111351 92.93228149 88.01095581 C92.94420341 91.87223676 92.94796721 95.73342853 92.94677734 99.59472656 C92.94657359 104.52854175 92.97395635 109.4617846 93.00832176 114.39546394 C93.03060716 118.20973312 93.0346145 122.02386438 93.03355789 125.83819199 C93.03590826 127.65697083 93.04469983 129.4757538 93.06022263 131.29446793 C93.07993147 133.84027178 93.0740277 136.38483811 93.06201172 138.93066406 C93.07325073 139.67165344 93.08448975 140.41264282 93.09606934 141.17608643 C93.03095085 146.63564206 91.57128552 150.81309096 88.57617188 155.39111328 C83.7673697 159.95947535 80.02333221 161.63839759 73.41644287 161.65853882 C71.51973091 161.67133377 71.51973091 161.67133377 69.58470154 161.68438721 C68.18569934 161.68368819 66.78669724 161.68276514 65.38769531 161.68164062 C63.91241618 161.68762593 62.43714017 161.69443148 60.96186829 161.70199585 C56.95548068 161.71966594 52.94917851 161.72435174 48.9427557 161.72562742 C46.43805745 161.72704936 43.9333809 161.73131982 41.42868805 161.73662186 C32.68568036 161.75512759 23.94273366 161.76329205 15.19970703 161.76171875 C7.05856227 161.76051817 -1.08231702 161.78160258 -9.22339463 161.81320608 C-16.21888416 161.83939157 -23.21428713 161.85008505 -30.20982528 161.84880793 C-34.38519988 161.84829883 -38.56033871 161.85395255 -42.73566437 161.87516403 C-46.66576469 161.89458411 -50.59540533 161.89464547 -54.52552223 161.88013077 C-55.96379839 161.878046 -57.40210359 161.88272377 -58.84033012 161.89485168 C-66.78340198 161.95746533 -72.68588751 161.81046319 -79.42382812 157.39111328 C-84.21017522 152.60476618 -85.63395169 147.43892486 -85.70599365 140.74542236 C-85.70351624 140.04407166 -85.70103882 139.34272095 -85.69848633 138.62011719 C-85.70359726 137.86465607 -85.70870819 137.10919495 -85.713974 136.33084106 C-85.72782458 133.84303763 -85.7269149 131.35551312 -85.72460938 128.86767578 C-85.72850231 127.12096048 -85.7328382 125.37424612 -85.7375946 123.62753296 C-85.74504972 119.9642226 -85.74477325 116.30100858 -85.73950195 112.63769531 C-85.73374605 107.98712584 -85.75054708 103.33695968 -85.77384663 98.68645668 C-85.78873135 95.07430792 -85.78943524 91.46225259 -85.7863369 87.85007858 C-85.786844 86.13840316 -85.79196438 84.42672164 -85.80214882 82.71507645 C-85.9247744 59.19928079 -81.11839789 38.85905998 -64.73632812 21.14111328 C-46.47444836 3.96841124 -24.17077509 -0.15658808 0 0 Z " fill="#E6B851" transform="translate(744.423828125,671.60888671875)"/>
<path d="M0 0 C1.36841789 -0.0049926 1.36841789 -0.0049926 2.76448059 -0.01008606 C4.68648784 -0.01512348 6.60850374 -0.01749538 8.53051758 -0.01733398 C11.43130357 -0.01951193 14.33170339 -0.03767846 17.23242188 -0.05664062 C37.5311155 -0.1190901 59.00169135 1.53497276 74.625 16.16015625 C79.23099869 20.90544417 82.66295977 26.42611924 86.20703125 31.98046875 C86.89087891 33.02912109 87.57472656 34.07777344 88.27929688 35.15820312 C93.26953125 42.89032452 93.26953125 42.89032452 93.26953125 45.16796875 C92.5425 45.49667969 91.81546875 45.82539062 91.06640625 46.1640625 C70.57874342 55.85630299 54.43769795 71.62367703 43.26953125 91.16796875 C42.85703125 91.88984375 42.44453125 92.61171875 42.01953125 93.35546875 C35.5349683 105.51402427 33.01680748 118.78738341 32.85546875 132.42578125 C32.8361026 133.45484589 32.81673645 134.48391052 32.79678345 135.54415894 C32.7375563 138.79368095 32.69083193 142.0432395 32.64453125 145.29296875 C32.60629904 147.51173321 32.56724435 149.73048366 32.52734375 151.94921875 C32.43190243 157.35534331 32.34669299 162.76155401 32.26953125 168.16796875 C19.89095249 168.28395875 7.5125036 168.37273332 -4.86650848 168.42702961 C-10.61497735 168.45309281 -16.36307365 168.48843175 -22.11132812 168.54516602 C-27.66158191 168.59960153 -33.21147796 168.62941394 -38.76197815 168.64235497 C-40.87664926 168.65157405 -42.9913014 168.66957695 -45.1058197 168.69661903 C-48.0742278 168.73306215 -51.04116884 168.73790764 -54.00976562 168.7355957 C-55.31312866 168.76256027 -55.31312866 168.76256027 -56.64282227 168.79006958 C-62.79963969 168.73838412 -66.98719805 167.14103196 -71.73046875 163.16796875 C-76.36734205 157.22325939 -76.88709689 152.60041508 -76.92333984 145.26879883 C-76.93560608 143.90217857 -76.93560608 143.90217857 -76.94812012 142.50794983 C-76.97297974 139.48447315 -76.9895014 136.46104384 -77.00390625 133.4375 C-77.00922993 132.40109564 -77.0145536 131.36469128 -77.0200386 130.29688072 C-77.04678652 124.79957189 -77.06614675 119.30228577 -77.08056641 113.80493164 C-77.09384486 109.2783561 -77.12158198 104.75223787 -77.16259766 100.22583008 C-77.2122709 94.74337533 -77.23673123 89.26133184 -77.24379349 83.77866173 C-77.25045486 81.70131633 -77.26554103 79.62397824 -77.2896843 77.54676247 C-77.52412903 56.13514389 -73.24746583 38.63482814 -58.20068359 22.47143555 C-42.44842697 6.40817419 -22.07957159 0.02862044 0 0 Z " fill="#E6B851" transform="translate(602.73046875,605.83203125)"/>
<path d="M0 0 C1.45051254 -0.01210762 1.45051254 -0.01210762 2.93032837 -0.02445984 C4.97257739 -0.03823093 7.01484874 -0.04898395 9.05712891 -0.05688477 C11.11058477 -0.06834126 13.16401237 -0.08869108 15.21728516 -0.1184082 C41.19416248 -0.49321564 64.22814364 4.20030548 83.6640625 22.61328125 C95.04891306 34.64452442 102.11023635 50.37767215 102.0637207 66.93383789 C102.06883163 67.88107224 102.07394257 68.82830658 102.07920837 69.804245 C102.09304967 72.91904101 102.09215213 76.03361449 102.08984375 79.1484375 C102.09373281 81.32124412 102.09806791 83.49404998 102.10282898 85.66685486 C102.11027879 90.21355661 102.11000824 94.76018069 102.10473633 99.30688477 C102.09893405 105.12982582 102.11589718 110.95244959 102.139081 116.77533817 C102.15381723 121.25949457 102.15469034 125.74357445 102.15157127 130.22775078 C102.15208423 132.37472603 102.15731718 134.52170559 102.16738319 136.6686573 C102.17973209 139.67002107 102.17296569 142.67076515 102.16137695 145.67211914 C102.16902069 146.55592255 102.17666443 147.43972595 102.18453979 148.35031128 C102.12908935 154.85417457 100.75203594 158.96536463 96.4140625 163.98828125 C91.18115104 168.47363393 86.46289629 168.52226467 79.86791992 168.46533203 C78.97961487 168.46562408 78.09130981 168.46591614 77.17608643 168.46621704 C74.24880096 168.46482707 71.32177209 168.44928148 68.39453125 168.43359375 C66.36143635 168.42986244 64.32833965 168.42701602 62.29524231 168.42501831 C56.95064304 168.41739118 51.6061529 168.39775052 46.26159668 168.37561035 C40.80527218 168.35513215 35.34893 168.34601237 29.89257812 168.3359375 C19.19135837 168.31450381 8.49021952 168.2803789 -2.2109375 168.23828125 C-2.2202832 166.99965332 -2.22962891 165.76102539 -2.23925781 164.48486328 C-2.2797488 159.79897748 -2.34565676 155.11370842 -2.41845703 150.42822266 C-2.44632955 148.41723679 -2.46770781 146.40614823 -2.48193359 144.39501953 C-2.70956441 113.99871793 -10.61801579 87.60263865 -32.2109375 65.23828125 C-40.83448391 56.87859857 -51.7041493 49.07387732 -63.2109375 45.23828125 C-60.83646972 40.39167942 -58.13203037 35.73822349 -55.4609375 31.05078125 C-54.94789063 30.14263672 -54.43484375 29.23449219 -53.90625 28.29882812 C-52.36634645 25.5962587 -50.79829013 22.91323222 -49.2109375 20.23828125 C-48.71811279 19.39813477 -48.22528809 18.55798828 -47.7175293 17.69238281 C-44.61165493 12.67910483 -42.02443064 9.88483113 -36.5234375 7.36328125 C-35.9154834 7.08210449 -35.3075293 6.80092773 -34.68115234 6.51123047 C-23.4181299 1.46513688 -12.20488687 0.09924377 0 0 Z " fill="#E6B851" transform="translate(863.2109375,605.76171875)"/>
<path d="M0 0 C2.30625623 0.00848601 4.61000338 -0.02032866 6.91601562 -0.05200195 C31.86081124 -0.16871382 56.89213584 8.63028042 75.10595703 25.96362305 C90.35625555 41.38150726 96.83674501 61.55297554 96.75073242 82.80273438 C96.41833767 107.86746085 86.3864613 128.94798198 68.68945312 146.32104492 C63.57650253 151.18713386 58.16661286 155.58692671 52.57226562 159.88354492 C37.11933376 171.80413489 25.59545041 184.53784858 22.57226562 204.44604492 C22.21973602 208.14581626 22.07558892 211.83879025 22.04101562 215.55541992 C21.46458147 219.1100972 20.34562219 220.23149901 17.57226562 222.44604492 C14.33052 224.06691773 10.76887374 223.6517585 7.20507812 223.68432617 C6.37394501 223.69239792 5.54281189 223.70046967 4.68649292 223.70878601 C2.92627041 223.72262563 1.16602107 223.73334834 -0.59423828 223.74121094 C-3.28534768 223.75843365 -5.97523157 223.80232029 -8.66601562 223.84643555 C-10.375642 223.8565617 -12.08527883 223.86507804 -13.79492188 223.87182617 C-15.00134842 223.8980883 -15.00134842 223.8980883 -16.23214722 223.92488098 C-19.87669137 223.9107405 -21.96809441 223.7989067 -24.90478516 221.54443359 C-30.01275662 214.50643829 -27.45971263 204.2044135 -26.24023438 196.07104492 C-23.38064056 178.48489003 -16.44055196 165.23202931 -4.16992188 152.34057617 C-1.7662969 149.80341648 0.53282375 147.21038263 2.82226562 144.57104492 C6.70450006 140.23413438 10.8688993 136.27291423 15.13476562 132.32104492 C15.78936768 131.71421875 16.44396973 131.10739258 17.1184082 130.48217773 C19.75060206 128.04672431 22.38657726 125.61581714 25.03320312 123.19604492 C35.15872241 113.59080924 41.42711063 102.91304092 41.97045898 88.93847656 C42.16455426 77.24815408 40.19192243 67.47347638 32.41992188 58.34838867 C24.99526655 50.7039761 15.85900653 47.90477437 5.34570312 47.24291992 C-8.73511513 47.04870174 -19.80201865 49.73344845 -30.49414062 59.29370117 C-38.23343739 67.43417098 -40.99564767 77.72006447 -43.53320312 88.35620117 C-44.42773438 91.44604492 -44.42773438 91.44604492 -46.42773438 93.44604492 C-48.28050232 93.70674133 -48.28050232 93.70674133 -50.55444336 93.72070312 C-51.40550156 93.73023514 -52.25655975 93.73976715 -53.13340759 93.74958801 C-54.51466576 93.7482209 -54.51466576 93.7482209 -55.92382812 93.74682617 C-56.86831314 93.7511113 -57.81279816 93.75539642 -58.78590393 93.7598114 C-60.78572792 93.76556078 -62.78557283 93.76605051 -64.78540039 93.76171875 C-67.84948341 93.75856115 -70.91259913 93.78200218 -73.9765625 93.80737305 C-75.91731649 93.80964617 -77.85807308 93.81034948 -79.79882812 93.80932617 C-81.17704994 93.82314079 -81.17704994 93.82314079 -82.58311462 93.8372345 C-83.43732498 93.83100571 -84.29153534 93.82477692 -85.17163086 93.81835938 C-85.922827 93.8189888 -86.67402313 93.81961823 -87.44798279 93.82026672 C-89.97222747 93.34312232 -90.85861125 92.44143823 -92.42773438 90.44604492 C-95.94832058 73.95320864 -86.57868685 52.96610719 -78.38085938 39.33276367 C-75.17696357 34.59740567 -71.39601401 30.54349098 -67.42773438 26.44604492 C-66.91082031 25.84405273 -66.39390625 25.24206055 -65.86132812 24.62182617 C-56.38554939 14.00796435 -41.87358539 7.32133858 -28.42773438 3.44604492 C-27.51781738 3.17896729 -26.60790039 2.91188965 -25.67041016 2.63671875 C-17.05700501 0.36446663 -8.84633563 -0.04937403 0 0 Z " fill="#E6B851" transform="translate(750.427734375,149.553955078125)"/>
<path d="M0 0 C1.73878056 -0.00542682 3.47755652 -0.01255261 5.21632385 -0.02124023 C9.9189073 -0.03941135 14.62113808 -0.03243145 19.32372737 -0.01972389 C24.25713311 -0.00956233 29.19050964 -0.01899846 34.12391663 -0.02526855 C42.40818677 -0.03253647 50.69231407 -0.02298046 58.9765625 -0.00390625 C68.53730252 0.01785363 78.09770117 0.01081407 87.6584329 -0.01121187 C95.88378526 -0.02939887 104.10903521 -0.03190786 112.33440119 -0.0214572 C117.23966821 -0.01523946 122.1447751 -0.01433897 127.05003166 -0.02760315 C131.6639245 -0.03920889 136.27737993 -0.03105011 140.89122581 -0.00802612 C142.57859829 -0.00276386 144.26600795 -0.00420999 145.95336533 -0.01307678 C157.24597609 -0.06691931 167.65512296 0.51950002 176.27541447 8.7289896 C183.2511515 16.92816478 183.51576394 25.74573416 183.42822266 36.01391602 C183.43336994 37.55742716 183.4406573 39.10093241 183.4499054 40.64442444 C183.46832335 44.80981713 183.45554286 48.97456468 183.4358151 53.13993001 C183.41935028 57.51325093 183.4282522 61.8865335 183.43333435 66.25987244 C183.43784612 73.60084256 183.42204135 80.94155712 183.39404297 88.2824707 C183.36198323 96.75321406 183.36201442 105.22349697 183.37925774 113.69427305 C183.39515458 121.86567742 183.38836977 130.036914 183.37132072 138.20831108 C183.36447252 141.67582133 183.3654596 145.14319618 183.37286568 148.61070442 C183.38056114 152.6977108 183.36829698 156.78419689 183.34101677 160.87111473 C183.33416631 162.36539288 183.3339989 163.85971993 183.3412323 165.35399628 C183.38110399 174.66811095 182.62733846 181.98186313 177.22680664 189.78710938 C170.03555671 196.92415391 162.65099559 198.85778384 152.72998047 198.85717773 C150.05788642 198.83292094 147.38740641 198.78773364 144.71586037 198.72834587 C141.82481419 198.66880278 138.93522262 198.64277192 136.04362488 198.62660217 C127.82946635 198.57858489 119.61686495 198.5022078 111.40429688 198.3293457 C106.36061871 198.2255887 101.31978791 198.18672655 96.27509117 198.18774605 C94.36971082 198.17601866 92.46430578 198.14079225 90.55985451 198.08015251 C79.90896133 197.74984124 72.5708853 198.33827351 64.45214844 205.72290039 C62.74073742 207.39150325 61.07959357 209.09187938 59.44095421 210.83188057 C56.71887154 213.62328476 53.72476841 216.08370943 50.73461914 218.58007812 C49.57591052 219.56961088 48.41821782 220.56033563 47.26196289 221.55273438 C46.69074707 222.0414502 46.11953125 222.53016602 45.53100586 223.03369141 C43.2017603 225.0270953 40.87409752 227.02234187 38.54663086 229.01782227 C37.38833158 230.01076567 36.22980608 231.00344525 35.07104492 231.99584961 C32.01307052 234.61518368 28.95911209 237.23902852 25.91040039 239.86914062 C25.27424805 240.41699219 24.6380957 240.96484375 23.98266602 241.52929688 C22.76274975 242.58002767 21.54394178 243.63204703 20.32641602 244.68554688 C13.00675538 250.98405907 13.00675538 250.98405907 6.73461914 250.84570312 C3.77824961 250.34502764 2.52878154 248.87263898 0.79711914 246.51757812 C-0.38983504 244.14366976 -0.32363919 242.71512861 -0.31640625 240.06787109 C-0.31633072 239.14706757 -0.31625519 238.22626404 -0.31617737 237.27755737 C-0.31101608 236.2816861 -0.3058548 235.28581482 -0.30053711 234.25976562 C-0.29912216 233.24157745 -0.29770721 232.22338928 -0.29624939 231.17434692 C-0.29063986 227.91372777 -0.27808574 224.65317662 -0.26538086 221.39257812 C-0.26036709 219.18554786 -0.25580397 216.97851653 -0.25170898 214.77148438 C-0.24066734 209.35349232 -0.22391991 203.93554008 -0.20288086 198.51757812 C-1.43627197 198.54078125 -2.66966309 198.56398438 -3.94042969 198.58789062 C-5.57608441 198.60665755 -7.21174572 198.62485676 -8.84741211 198.64257812 C-9.65827271 198.65933594 -10.4691333 198.67609375 -11.30456543 198.69335938 C-19.12459886 198.75685622 -24.41659783 196.97147753 -30.24975586 191.65039062 C-38.41468988 182.97936566 -38.64840892 174.75208243 -38.62280273 163.37768555 C-38.63014919 161.83624153 -38.63873709 160.294803 -38.64846802 158.75337219 C-38.67063425 154.57964569 -38.6736171 150.4061169 -38.6717205 146.23233962 C-38.67160056 142.74102708 -38.68017477 139.24975605 -38.68849802 135.7584551 C-38.70771518 127.51692024 -38.71062236 119.27548666 -38.70385742 111.03393555 C-38.69722049 102.54904187 -38.72007072 94.06458334 -38.75717115 85.5797779 C-38.787924 78.28015244 -38.79922206 70.98066654 -38.79533434 63.68097764 C-38.79327229 59.3278109 -38.79866127 54.97498272 -38.82322693 50.62187767 C-38.84558371 46.52502811 -38.84354291 42.42888289 -38.82329941 38.33202934 C-38.81990485 36.83492733 -38.82491104 35.33777708 -38.83928299 33.8407402 C-38.92469665 24.27819529 -38.16468141 16.21639146 -31.64571381 8.72911358 C-22.35941905 0.02593002 -12.03777431 -0.06317358 0 0 Z M-17.61432552 22.165452 C-19.65411679 25.1857096 -19.70823727 27.02547531 -19.71754456 30.65953064 C-19.73026901 31.91992661 -19.74299347 33.18032257 -19.75610352 34.47891235 C-19.74992123 35.87323186 -19.74331521 37.26754953 -19.73632812 38.66186523 C-19.74338643 40.13216519 -19.75213107 41.60245787 -19.76243591 43.07273865 C-19.78495072 47.06456465 -19.78198536 51.05599456 -19.77311444 55.04785991 C-19.76800648 58.38044192 -19.77529558 61.71294937 -19.78258651 65.0455237 C-19.79959234 72.90761261 -19.79601309 80.76950746 -19.77929688 88.6315918 C-19.76237519 96.74221036 -19.77820887 104.85229074 -19.81051975 112.96285051 C-19.83721198 119.92689876 -19.84449267 126.89077945 -19.83600467 133.85487372 C-19.83107427 138.01397078 -19.83329686 142.17274401 -19.85379219 146.33180046 C-19.87214377 150.24313785 -19.86619801 154.15370098 -19.84159279 158.06499672 C-19.83658306 159.49968453 -19.84007906 160.93443128 -19.85274124 162.36907196 C-19.8686689 164.32887722 -19.85070149 166.28887031 -19.83106995 168.24864197 C-19.83048364 169.34498931 -19.82989733 170.44133665 -19.82929325 171.57090664 C-18.99331969 175.50336311 -17.28244307 177.01937926 -14.20288086 179.51757812 C-11.19468967 180.25613779 -11.19468967 180.25613779 -7.94897461 180.15429688 C-6.7649707 180.17427734 -5.5809668 180.19425781 -4.36108398 180.21484375 C-3.13325195 180.21162109 -1.90541992 180.20839844 -0.64038086 180.20507812 C1.79849027 180.22166909 4.23732415 180.24607206 6.67602539 180.27929688 C7.75440674 180.27889404 8.83278809 180.27849121 9.94384766 180.27807617 C12.84444791 180.52155087 14.43364365 180.8422492 16.79711914 182.51757812 C19.32591829 185.95319436 19.14133885 189.80081371 19.21118164 193.90820312 C19.23054779 194.61281677 19.24991394 195.31743042 19.26986694 196.043396 C19.32944649 198.28466852 19.37596037 200.52599302 19.42211914 202.76757812 C19.46031893 204.2910375 19.49937183 205.81447574 19.53930664 207.33789062 C19.63512932 211.06425918 19.71924021 214.79078648 19.79711914 218.51757812 C23.43113491 216.80635248 25.92349018 214.71823926 28.85961914 211.95507812 C33.45828802 207.6791773 38.22102459 203.68053509 43.10961914 199.73632812 C46.52022164 196.92059816 49.7779227 193.95853251 53.01977539 190.95117188 C53.93629883 190.14808594 54.85282227 189.345 55.79711914 188.51757812 C56.36572662 187.87202972 56.93433411 187.22648132 57.52017212 186.56137085 C63.85785357 180.23163282 69.48803856 179.63902339 78.01270485 179.53069115 C80.91685901 179.53584683 83.81909171 179.57943124 86.72290039 179.62304688 C88.75929614 179.62314561 90.79569558 179.61928147 92.83207703 179.61164856 C98.16856873 179.60024985 103.50375466 179.6337588 108.84002686 179.67956543 C117.39702995 179.7463359 125.95416197 179.7486402 134.51137352 179.74288368 C137.49465868 179.74797731 140.47715395 179.7748517 143.46028137 179.80473328 C145.28780936 179.81137259 147.11533935 179.81748913 148.94287109 179.82299805 C150.18274277 179.84400322 150.18274277 179.84400322 151.44766235 179.86543274 C156.49741981 179.85899726 160.05008021 179.26461705 163.79711914 175.51757812 C163.90252029 173.57785949 163.93679382 171.63426189 163.94429016 169.69169617 C163.95144547 168.42556488 163.95860077 167.15943359 163.9659729 165.85493469 C163.96881346 164.43869043 163.97152515 163.0224459 163.97412109 161.60620117 C163.98038282 160.12487629 163.98702936 158.643553 163.99403381 157.16223145 C164.01147108 153.1270323 164.02200303 149.09184502 164.03023934 145.0566175 C164.03538384 142.5374002 164.04145983 140.01818662 164.04775047 137.49897194 C164.06681036 129.62234667 164.08103965 121.74573083 164.08936244 113.86908692 C164.09913809 104.76683568 164.12546268 95.66482742 164.16586334 86.56266183 C164.19599262 79.53418508 164.21082829 72.50577809 164.21414346 65.477238 C164.21649768 61.27622167 164.22550588 57.07546468 164.25060463 52.87451744 C164.27383479 48.92232927 164.27813925 44.9705721 164.26784325 41.01833344 C164.26734653 39.56708406 164.27370701 38.11581385 164.28739929 36.66462898 C164.30503677 34.6846347 164.29565337 32.70445446 164.28486633 30.72441101 C164.28844886 29.06160111 164.28844886 29.06160111 164.29210377 27.36519909 C163.98513285 24.45066941 163.98513285 24.45066941 162.21024609 22.16139698 C158.91630486 19.91756861 156.67308613 20.0143195 152.69934082 20.00964355 C151.98412372 20.00340359 151.26890662 19.99716363 150.53201628 19.99073458 C148.13502268 19.97477737 145.73904218 19.98741866 143.34204102 20 C141.62381903 19.99458006 139.9056017 19.98745813 138.18739319 19.97875977 C133.52003929 19.96050813 128.85303864 19.96760149 124.18567848 19.98027611 C119.30415511 19.99039426 114.42266224 19.98101373 109.5411377 19.97473145 C101.34304364 19.96745158 93.14509367 19.97705163 84.94702148 19.99609375 C75.46522268 20.01786314 65.98376791 20.01081201 56.50197744 19.98878813 C48.36514129 19.97064378 40.22840878 19.96807108 32.09155893 19.9785428 C27.23000352 19.98478305 22.36860988 19.98559879 17.50706482 19.97239685 C12.93675549 19.96085301 8.36689024 19.96883712 3.79662895 19.99197388 C2.11802852 19.99726883 0.43939079 19.99573375 -1.23919487 19.98692322 C-3.52833748 19.97601459 -5.81605133 19.98967256 -8.10510254 20.00964355 C-9.38673027 20.01115166 -10.668358 20.01265976 -11.98882294 20.01421356 C-15.23613894 20.28698288 -15.23613894 20.28698288 -17.61432552 22.165452 Z " fill="#E6B750" transform="translate(436.202880859375,191.482421875)"/>
<path d="M0 0 C13.54238627 10.89463721 22.56854069 25.49975411 25.32470703 42.76318359 C26.81006187 60.18049516 22.67152164 77.46418345 11.67236328 91.22802734 C6.64382758 97.11257858 1.12283352 102.00757525 -5.67529297 105.76318359 C-6.45388672 106.21177734 -7.23248047 106.66037109 -8.03466797 107.12255859 C-21.75186915 114.54906879 -38.54917812 116.4653518 -53.61279297 112.13818359 C-55.6510568 111.39254024 -57.67327701 110.60129789 -59.67529297 109.76318359 C-60.67818359 109.36228516 -61.68107422 108.96138672 -62.71435547 108.54833984 C-77.56354031 101.92951714 -88.32795312 89.43338271 -94.60888672 74.59130859 C-100.86811058 57.99175521 -100.46545539 41.03944359 -93.35498047 24.73583984 C-84.34483006 7.18327907 -70.27206245 -4.04847161 -51.67529297 -10.23681641 C-34.48982878 -14.79745805 -14.13499217 -10.43542267 0 0 Z " fill="#E6B852" transform="translate(228.67529296875,448.23681640625)"/>
<path d="M0 0 C6.37848602 6.23352042 11.11401862 12.87813338 15.125 20.8125 C15.45870605 21.46903564 15.79241211 22.12557129 16.13623047 22.80200195 C22.53052304 35.97029959 23.07560346 52.32699884 18.6875 66.25 C12.91059245 82.87723105 2.12148191 96.08494495 -13.62109375 104.0625 C-29.96472926 111.38107091 -46.52775393 111.93293555 -63.25 105.6875 C-79.48409697 98.16485723 -91.50426949 85.16343573 -98.25 68.6875 C-103.70426016 52.81683321 -102.60505912 36.00901901 -95.96484375 20.73046875 C-92.45299568 13.73611954 -87.74558872 8.21156327 -82.25 2.6875 C-81.65832031 2.06101563 -81.06664062 1.43453125 -80.45703125 0.7890625 C-76.23594693 -3.32952308 -71.46659581 -5.97745028 -66.25 -8.625 C-65.58540771 -8.96289551 -64.92081543 -9.30079102 -64.23608398 -9.64892578 C-42.26407642 -20.31757112 -18.96672417 -13.49555373 0 0 Z " fill="#E6B851" transform="translate(549.25,243.3125)"/>
<path d="M0 0 C12.51407831 -0.55505993 25.20157893 2.72720398 35.28125 10.24609375 C35.98636719 10.75914062 36.69148437 11.2721875 37.41796875 11.80078125 C47.2409905 19.62177762 54.39903485 32.85009093 56.28125 45.24609375 C57.43479986 59.88293948 54.49915862 74.20296686 45.2421875 85.80078125 C40.74321837 91.01092764 36.09301258 95.53919488 30.28125 99.24609375 C29.69214844 99.62378906 29.10304688 100.00148438 28.49609375 100.390625 C17.73489395 106.49092297 3.77176627 107.98381765 -8.15625 105.12109375 C-23.15624109 100.50571188 -34.82686964 91.92535305 -42.71875 78.24609375 C-44.32168265 74.97993005 -45.60406812 71.70776913 -46.71875 68.24609375 C-47.05712891 67.20582031 -47.05712891 67.20582031 -47.40234375 66.14453125 C-51.214675 52.10463549 -48.55397537 38.8920002 -42.1796875 26.17578125 C-34.86500303 13.73041763 -23.64309079 5.79254641 -10.0234375 1.37109375 C-6.68998032 0.5993609 -3.40217695 0.30795567 0 0 Z " fill="#E6B852" transform="translate(870.71875,484.75390625)"/>
<path d="M0 0 C9.47904741 7.34873885 16.24017005 19.36751211 19 31 C19.41229452 34.4502185 19.47760407 37.84031512 19.4375 41.3125 C19.42992676 42.23458252 19.42235352 43.15666504 19.41455078 44.10668945 C19.05901534 58.86141032 12.64918883 71.79718436 2 82 C-9.82359784 92.18909688 -24.65675998 96.0859725 -40 95 C-52.97584403 92.69132893 -64.97507441 86.35079919 -73.4140625 76.0546875 C-83.19251201 61.99168768 -86.31232028 49.02440554 -85 32 C-82.43240313 18.6044803 -74.21074522 6.4480757 -63.375 -1.6875 C-43.31730667 -15.11048926 -19.48263309 -13.7741648 0 0 Z " fill="#E6B851" transform="translate(649,496)"/>
<path d="M0 0 C11.55689373 8.03737119 20.57003467 19.67799676 23.72265625 33.6484375 C25.8936674 50.38419335 23.59387858 65.04840023 13.125 78.75 C4.62954011 88.92335738 -7.67069636 96.03052066 -20.875 97.75 C-37.11678847 98.80623571 -50.45091746 95.29725736 -63 84.5625 C-73.69759837 74.47856231 -79.91076597 61.95126904 -81.078125 47.1796875 C-81.35883134 31.88119218 -75.67465395 17.87029228 -65.1015625 6.74609375 C-47.08531475 -9.40531432 -20.90735248 -12.53293969 0 0 Z " fill="#E6B851" transform="translate(775.875,558.25)"/>
<path d="M0 0 C6.21742008 22.26164806 12.430078 44.52458339 18.61279297 66.79589844 C18.80139893 67.47504303 18.99000488 68.15418762 19.18432617 68.85391235 C19.5546528 70.18882234 19.92429776 71.52392165 20.29321289 72.85922241 C21.31072295 76.53843807 22.34447382 80.21239266 23.39501953 83.88232422 C23.62673355 84.69845688 23.85844757 85.51458954 24.09718323 86.35545349 C24.54536833 87.93321177 24.99759235 89.50983008 25.45445251 91.08509827 C26.43656762 94.55773839 27 97.36078932 27 101 C16.55336453 99.4223167 6.22725927 97.27071337 -4.11206055 95.11376953 C-7.08577887 94.49515738 -10.0613822 93.88620941 -13.03710938 93.27734375 C-14.93241449 92.88340296 -16.82760133 92.48889259 -18.72265625 92.09375 C-19.61010025 91.91348267 -20.49754425 91.73321533 -21.41188049 91.54748535 C-22.23381393 91.37390503 -23.05574738 91.20032471 -23.90258789 91.02148438 C-24.62362198 90.87207397 -25.34465607 90.72266357 -26.08753967 90.56872559 C-28 90 -28 90 -31 88 C-31.64346715 85.69090735 -32.12839192 83.47499017 -32.5625 81.125 C-34.5878155 71.21027092 -38.17836258 61.8582746 -41.82250977 52.44775391 C-42.26006592 51.2829248 -42.69762207 50.1180957 -43.1484375 48.91796875 C-43.55239746 47.87406982 -43.95635742 46.8301709 -44.37255859 45.75463867 C-45 43 -45 43 -44.2109375 40.72607422 C-42.85123606 38.78795141 -41.45216701 37.44472005 -39.625 35.9375 C-28.87973873 26.79543935 -18.89442503 16.98893242 -9.03442383 6.90966797 C-8.15423584 6.01779785 -7.27404785 5.12592773 -6.3671875 4.20703125 C-5.57425293 3.3972583 -4.78131836 2.58748535 -3.96435547 1.75317383 C-2 0 -2 0 0 0 Z " fill="#FEFEFD" transform="translate(382,438)"/>
<path d="M0 0 C7.02683245 5.02293277 12.41761042 11.26169016 14.76953125 19.67578125 C15.96752669 29.22344189 14.53827568 37.82772955 9.296875 45.9609375 C4.41916726 52.13014232 -1.87597904 55.22428468 -9.23046875 57.67578125 C-18.72396113 58.48128969 -26.12950299 58.08167864 -34.23046875 52.67578125 C-35.13796875 52.11890625 -36.04546875 51.56203125 -36.98046875 50.98828125 C-43.52031443 44.26677319 -47.4908304 35.7521624 -47.60546875 26.36328125 C-47.42853446 17.20432955 -44.34273346 11.11498229 -38.15625 4.46484375 C-27.45858099 -5.47335586 -12.760144 -7.57563716 0 0 Z " fill="#E6B751" transform="translate(765.23046875,408.32421875)"/>
<path d="M0 0 C2.5625 0.3125 2.5625 0.3125 4.375 1.375 C6.17092137 4.30518751 5.75227574 6.9597953 5.5625 10.3125 C6.42875 10.56 7.295 10.8075 8.1875 11.0625 C11.89938281 12.43727141 14.58272017 13.68745586 17.5625 16.3125 C18 20 18 20 17.5625 23.3125 C16.5625 24.3125 16.5625 24.3125 13.4375 24.625 C9.82115142 24.33335899 8.86076616 24.11561096 6 22.3125 C2.3448494 20.18586692 0.69329096 19.57813716 -3.4375 20.3125 C-5.95756844 21.74911311 -5.95756844 21.74911311 -7.4375 24.3125 C-8.06555342 28.89214908 -8.06555342 28.89214908 -6.26953125 32.96875 C-3.78389175 34.79190563 -1.73591057 34.90569982 1.3125 35.25 C8.10956142 36.2597084 12.21269258 37.71534443 16.9375 42.9375 C19.73608717 48.74995028 20.26589959 53.92875695 18.4375 60.125 C15.81142706 64.589324 12.85097605 67.45351597 8.5625 70.3125 C7.2425 70.3125 5.9225 70.3125 4.5625 70.3125 C4.624375 71.59125 4.68625 72.87 4.75 74.1875 C4.85546875 76.3671875 4.85546875 76.3671875 4.5625 78.3125 C1.5625 80.3125 1.5625 80.3125 -1.0625 80 C-3.4375 79.3125 -3.4375 79.3125 -4.4375 78.3125 C-4.57865161 75.64191149 -4.47997107 72.98817762 -4.4375 70.3125 C-5.4275 70.2196875 -5.4275 70.2196875 -6.4375 70.125 C-10.77136403 68.95124516 -15.22500912 66.52499088 -18.4375 63.3125 C-18.73181219 60.5165342 -18.77522308 58.87537181 -17.3125 56.4375 C-15.4375 55.3125 -15.4375 55.3125 -12.625 55.375 C-9.4375 56.3125 -9.4375 56.3125 -6.5625 58.375 C-2.38089687 60.96759394 -0.29060378 60.86941355 4.5625 60.3125 C6.72916667 59.47916667 6.72916667 59.47916667 7.5625 57.3125 C8.01554626 54.55981388 8.25767569 52.02751686 7.5625 49.3125 C4.57754385 46.27148834 1.89035119 45.87332644 -2.25 45.4375 C-9.21855407 44.40071513 -13.1378485 42.35397457 -17.375 36.75 C-19.35065458 30.35817636 -19.68529488 23.90051902 -16.75 17.8125 C-12.95690328 13.7118549 -10.13324205 10.96344195 -4.4375 10.3125 C-4.47875 9.03375 -4.52 7.755 -4.5625 6.4375 C-4.6328125 4.2578125 -4.6328125 4.2578125 -4.4375 2.3125 C-2.4375 0.3125 -2.4375 0.3125 0 0 Z " fill="#FEFCF9" transform="translate(508.4375,250.6875)"/>
<path d="M0 0 C0 3.77910478 -0.99703962 4.46106101 -3.5 7.1875 C-4.1496875 7.90292969 -4.799375 8.61835938 -5.46875 9.35546875 C-5.9740625 9.89816406 -6.479375 10.44085938 -7 11 C-7.66 10.67 -8.32 10.34 -9 10 C-6.03 6.7 -3.06 3.4 0 0 Z " fill="#E3B03E" transform="translate(373,426)"/>
<path d="M0 0 C0.33 0.66 0.66 1.32 1 2 C-1.66666667 4.66666667 -4.33333333 7.33333333 -7 10 C-7.66 9.67 -8.32 9.34 -9 9 C-6.03 6.03 -3.06 3.06 0 0 Z " fill="#E3AD37" transform="translate(361,439)"/>
</svg>
