<?xml version="1.0" encoding="UTF-8"?>
<svg version="1.1" xmlns="http://www.w3.org/2000/svg" width="1024" height="1024">
<path d="M0 0 C1.51807503 -0.01073296 1.51807503 -0.01073296 3.06681824 -0.02168274 C4.17130814 -0.02437164 5.27579803 -0.02706055 6.41375732 -0.02983093 C8.16563103 -0.03968773 8.16563103 -0.03968773 9.95289612 -0.04974365 C13.8210354 -0.06946749 17.68913588 -0.08113682 21.55731201 -0.09111023 C22.89194509 -0.09515983 24.22657797 -0.09927681 25.56121063 -0.10346031 C31.83282154 -0.12250045 38.10442077 -0.13673377 44.376055 -0.14507228 C51.60201793 -0.15483978 58.82767413 -0.18115113 66.05352902 -0.22157317 C71.64774619 -0.25178779 77.24187568 -0.2665462 82.83617282 -0.26985329 C86.17329157 -0.2721978 89.50982239 -0.28306852 92.84690094 -0.30631447 C96.57386178 -0.33066419 100.30002252 -0.32974792 104.02703857 -0.32279968 C105.67162804 -0.34201477 105.67162804 -0.34201477 107.34944153 -0.36161804 C113.66755876 -0.31874636 118.78513807 0.31237042 123.97918701 4.14717102 C128.50082353 9.82820152 129.12605967 14.2735459 129.11048889 21.31884766 C129.11366246 22.58361119 129.11366246 22.58361119 129.11690015 23.87392551 C129.12291032 26.71070711 129.12189921 29.54744435 129.12103271 32.38423157 C129.12406394 34.41467362 129.12758529 36.445115 129.13156128 38.47555542 C129.13946003 42.85768396 129.14459917 47.23980431 129.14785194 51.62193871 C129.15376851 58.57241672 129.17032012 65.52284366 129.18919373 72.47329712 C129.19553195 74.85585686 129.20185756 77.23841664 129.20817089 79.62097645 C129.2113367 80.81464097 129.21450251 82.00830549 129.21776426 83.23814166 C129.25975178 99.41866481 129.29274749 115.59916546 129.30511475 131.77973938 C129.31354043 142.69126813 129.33620485 153.60267153 129.37447041 164.51413757 C129.39409673 170.2795427 129.40668115 176.04476102 129.40163612 181.81020164 C129.37070598 225.55374507 131.9796611 267.3858156 161.97918701 302.14717102 C162.79129639 303.10881165 163.60340576 304.07045227 164.44012451 305.06123352 C170.07199598 311.51034816 176.16420468 316.97684483 182.97918701 322.14717102 C183.76809326 322.75174133 184.55699951 323.35631165 185.36981201 323.97920227 C216.77758722 347.0150374 257.03787403 353.23221099 294.99871826 347.68940735 C324.1727963 342.77132451 349.20833918 327.78069093 369.97918701 307.14717102 C370.63918701 306.15717102 371.29918701 305.16717102 371.97918701 304.14717102 C372.63918701 304.14717102 373.29918701 304.14717102 373.97918701 304.14717102 C374.23699951 303.57224915 374.49481201 302.99732727 374.76043701 302.40498352 C376.08787023 299.9458284 377.6401547 298.12499895 379.47918701 296.02217102 C397.35037742 273.7479337 406.1733307 243.44639248 406.11048889 215.1083374 C406.11260461 214.24466256 406.11472032 213.38098771 406.11690015 212.4911409 C406.12285076 209.62183253 406.12190357 206.75256876 406.12103271 203.883255 C406.12406738 201.81611558 406.12758968 199.74897682 406.13156128 197.68183899 C406.1394251 193.24248621 406.14458558 188.80314137 406.14785194 184.36378288 C406.15378035 177.34160804 406.17033644 170.31948337 406.18919373 163.29733276 C406.19553024 160.89009383 406.20185587 158.48285487 406.20817089 156.07561588 C406.2113367 154.87049071 406.21450251 153.66536555 406.21776426 152.42372143 C406.25980047 136.08423221 406.29283453 119.74476742 406.30511475 103.40522766 C406.3134934 92.37002221 406.33597172 81.3349422 406.37447041 70.2997995 C406.39422716 64.46457032 406.40663658 58.62952861 406.40163612 52.79426384 C406.39699194 47.30873218 406.41078285 41.82355651 406.43864822 36.33809662 C406.44556211 34.32737713 406.44568446 32.31662084 406.43844795 30.30590248 C406.42955339 27.55651946 406.44526273 24.80830899 406.4669342 22.059021 C406.45849167 21.26747271 406.45004913 20.47592443 406.44135076 19.66038984 C406.52193499 14.1146377 407.8288426 9.75961728 410.97918701 5.14717102 C416.07350367 0.91997209 420.5448709 0.02611451 427.01309204 0.01345825 C428.00271942 0.00919327 428.9923468 0.00492828 430.01196289 0.00053406 C431.62358307 0.00121384 431.62358307 0.00121384 433.26776123 0.00190735 C434.97837234 -0.00313057 434.97837234 -0.00313057 436.72354126 -0.00827026 C440.49366342 -0.01776966 444.26374113 -0.01972284 448.03387451 -0.02079773 C450.65554828 -0.02401089 453.27722187 -0.02737501 455.89889526 -0.03088379 C461.3949004 -0.03727371 466.8908935 -0.03876678 472.38690186 -0.03813171 C478.72903814 -0.03753114 485.07108932 -0.04808143 491.41320407 -0.06387538 C497.52623142 -0.07855345 503.63921807 -0.08211906 509.75226212 -0.08152199 C512.34777296 -0.08270177 514.94328443 -0.08712345 517.53878403 -0.09485435 C521.16986902 -0.10465753 524.80073518 -0.10177477 528.43182373 -0.0957489 C529.50218872 -0.10136841 530.57255371 -0.10698792 531.675354 -0.11277771 C544.36682001 -0.05929035 544.36682001 -0.05929035 548.94012451 3.80342102 C549.40676514 4.41185852 549.87340576 5.02029602 550.35418701 5.64717102 C550.83629639 6.25560852 551.31840576 6.86404602 551.81512451 7.49092102 C554.10960646 10.75555306 554.10100893 12.9162963 554.0927124 16.8820343 C554.09263687 18.08312836 554.09256134 19.28422241 554.09248352 20.52171326 C554.08732224 21.82381744 554.08216095 23.12592163 554.07684326 24.46748352 C554.07497839 25.80983935 554.07355481 27.15219586 554.07255554 28.49455261 C554.0687358 32.02912777 554.05891014 35.56366189 554.04785156 39.09822083 C554.03762579 42.70437566 554.03305542 46.31053712 554.02801514 49.91670227 C554.01728739 56.99354198 554.00021746 64.07035382 553.97918701 71.14717102 C554.63918701 71.47717102 555.29918701 71.80717102 555.97918701 72.14717102 C555.31918701 72.14717102 554.65918701 72.14717102 553.97918701 72.14717102 C553.97918701 74.45717102 553.97918701 76.76717102 553.97918701 79.14717102 C554.63918701 79.47717102 555.29918701 79.80717102 555.97918701 80.14717102 C555.31918701 80.14717102 554.65918701 80.14717102 553.97918701 80.14717102 C554.05137451 81.03920227 554.12356201 81.93123352 554.19793701 82.85029602 C554.29074951 84.02076477 554.38356201 85.19123352 554.47918701 86.39717102 C554.57199951 87.55732727 554.66481201 88.71748352 554.76043701 89.91279602 C556.13850412 110.28850256 555.97368624 131.97211904 554.47918701 152.33467102 C554.38637451 153.60697571 554.29356201 154.8792804 554.19793701 156.19013977 C554.12574951 157.16596008 554.05356201 158.1417804 553.97918701 159.14717102 C554.63918701 159.47717102 555.29918701 159.80717102 555.97918701 160.14717102 C555.64918701 160.47717102 555.31918701 160.80717102 554.97918701 161.14717102 C554.88001132 163.29111621 554.84948552 165.43843834 554.85418701 167.58467102 C554.85031982 169.34617493 554.85031982 169.34617493 554.84637451 171.14326477 C554.77153156 174.07125192 554.77153156 174.07125192 555.97918701 176.14717102 C555.31918701 176.14717102 554.65918701 176.14717102 553.97918701 176.14717102 C554.0147168 176.88838196 554.05024658 177.6295929 554.08685303 178.39326477 C557.38335809 250.33302126 546.76205107 321.69086384 502.97918701 381.14717102 C502.22121826 382.19775696 501.46324951 383.2483429 500.68231201 384.33076477 C493.40037586 394.25950396 485.59718558 403.81659735 476.74090576 412.38545227 C475.03857795 414.08778008 473.50869574 415.85211753 471.97918701 417.70967102 C469.31107309 420.88565649 466.3783363 423.53878179 463.21746826 426.21748352 C460.73703889 428.35593397 458.36712156 430.59352105 455.97918701 432.83467102 C431.07148352 455.53142718 399.61302287 473.72664881 367.97918701 485.14717102 C367.32128174 485.38742004 366.66337646 485.62766907 365.98553467 485.87519836 C344.91193575 493.49651166 323.16685748 498.19469054 300.97918701 501.14717102 C300.23821777 501.25174622 299.49724854 501.35632141 298.73382568 501.46406555 C227.29489813 510.18812028 153.20606622 487.6542088 95.97918701 445.14717102 C95.31564209 444.65474915 94.65209717 444.16232727 93.96844482 443.65498352 C86.15790898 437.80415274 78.9002006 431.48696738 71.81903076 424.77607727 C69.06644294 422.16212052 69.06644294 422.16212052 66.30731201 420.02217102 C64.19475545 418.32078319 62.53039178 416.65413196 60.79168701 414.58467102 C58.05897091 411.3759334 55.23704103 408.28409232 52.35418701 405.20967102 C13.31752225 362.26933979 -12.14515909 305.00884685 -17.02081299 247.14717102 C-17.10139544 246.26487761 -17.1819779 245.38258419 -17.26500225 244.47355461 C-18.1759877 233.44762291 -18.18362503 222.45443662 -18.19781494 211.3976593 C-18.20409234 209.23126113 -18.21074024 207.06486401 -18.21772766 204.89846802 C-18.2385934 197.83814724 -18.24910361 190.77782663 -18.25909424 183.71748352 C-18.26314633 181.27771367 -18.26726338 178.83794392 -18.27144432 176.39817429 C-18.29044606 164.94741689 -18.3046956 153.49666579 -18.31305629 142.0458957 C-18.32285379 128.84894247 -18.3492597 115.65215583 -18.38955718 102.45526135 C-18.41969967 92.23243192 -18.43452281 82.00965039 -18.4378373 71.78677738 C-18.44018693 65.68890821 -18.44913902 59.5912181 -18.47429848 53.49339676 C-18.49755582 47.76572508 -18.50182174 42.03835079 -18.49153709 36.31064415 C-18.49104131 34.21120782 -18.4973743 32.11175691 -18.51109314 30.01236534 C-18.52879437 27.1428919 -18.52171485 24.27448845 -18.50856018 21.40501404 C-18.51952943 20.57796687 -18.53049867 19.75091971 -18.54180032 18.89881051 C-18.47940939 13.24840181 -17.23392642 8.85239311 -14.02081299 4.14717102 C-9.61181313 0.73019613 -5.46774835 0.02660652 0 0 Z M5.97918701 26.14717102 C5.97918701 42.97717102 5.97918701 59.80717102 5.97918701 77.14717102 C38.64918701 77.14717102 71.31918701 77.14717102 104.97918701 77.14717102 C104.97918701 60.97717102 104.97918701 44.80717102 104.97918701 28.14717102 C103.65918701 27.81717102 102.33918701 27.48717102 100.97918701 27.14717102 C100.97918701 26.81717102 100.97918701 26.48717102 100.97918701 26.14717102 C69.62918701 26.14717102 38.27918701 26.14717102 5.97918701 26.14717102 Z M430.97918701 26.14717102 C430.97918701 42.97717102 430.97918701 59.80717102 430.97918701 77.14717102 C463.64918701 77.14717102 496.31918701 77.14717102 529.97918701 77.14717102 C529.97918701 60.31717102 529.97918701 43.48717102 529.97918701 26.14717102 C497.30918701 26.14717102 464.63918701 26.14717102 430.97918701 26.14717102 Z M5.97918701 102.14717102 C5.89155752 125.15106198 5.89155752 125.15106198 5.83270264 148.15498352 C5.81501096 157.55737812 5.79439692 166.95969117 5.75286865 176.36201477 C5.72261738 183.2145063 5.70353101 190.06693065 5.69692153 196.91948712 C5.69306852 200.5354535 5.68425999 204.15122803 5.66199684 207.76713181 C5.52868561 230.30913278 6.47205256 252.74495795 11.66668701 274.77217102 C11.92014893 275.87423889 12.17361084 276.97630676 12.43475342 278.11177063 C16.73008845 296.12924525 22.85221072 313.50692706 30.97918701 330.14717102 C31.34205811 330.8974054 31.7049292 331.64763977 32.07879639 332.42060852 C43.05404819 354.86225936 57.45829094 375.35694118 74.56903076 393.52607727 C76.97918701 396.14717102 76.97918701 396.14717102 79.17059326 398.98701477 C79.7674292 399.69986633 80.36426514 400.4127179 80.97918701 401.14717102 C81.63918701 401.14717102 82.29918701 401.14717102 82.97918701 401.14717102 C82.97918701 401.80717102 82.97918701 402.46717102 82.97918701 403.14717102 C84.42601753 404.64990988 84.42601753 404.64990988 86.35418701 406.20967102 C88.63662289 408.14005007 90.8928855 410.06587016 93.06903076 412.11592102 C140.63035207 456.91885287 209.8694845 479.64117407 274.51751709 478.01094055 C337.86357193 475.80981748 397.9135143 453.15535138 444.79559326 410.14717102 C447.58067013 407.59625982 450.4305675 405.12447473 453.28778076 402.65498352 C455.72101746 400.48942503 455.72101746 400.48942503 457.97918701 398.14717102 C457.97918701 397.48717102 457.97918701 396.82717102 457.97918701 396.14717102 C458.63918701 396.14717102 459.29918701 396.14717102 459.97918701 396.14717102 C461.41618923 394.80461702 461.41618923 394.80461702 462.91668701 392.95967102 C463.53672607 392.22748352 464.15676514 391.49529602 464.79559326 390.74092102 C465.5161792 389.88498352 466.23676514 389.02904602 466.97918701 388.14717102 C467.83383545 387.16748352 468.68848389 386.18779602 469.56903076 385.17842102 C475.43908093 378.42557034 480.83494782 371.50395562 485.75311279 364.0124054 C486.61451631 362.70194684 487.4833578 361.39636195 488.35760498 360.09443665 C507.52955041 331.4742388 520.32132931 299.19217296 526.16668701 265.27217102 C526.32177734 264.37691711 526.47686768 263.48166321 526.63665771 262.5592804 C529.79054364 242.99315652 530.26429528 223.55169531 530.18197489 203.76711631 C530.16925481 200.17976418 530.16828063 196.59240661 530.16592407 193.0050354 C530.15977053 186.24833629 530.14344508 179.49170388 530.12322509 172.73503381 C530.09643437 163.57896149 530.0858438 154.42287023 530.07422066 145.26676846 C530.05555809 130.8935196 530.01567246 116.52041131 529.97918701 102.14717102 C497.30918701 102.14717102 464.63918701 102.14717102 430.97918701 102.14717102 C430.99078857 109.38783508 431.00239014 116.62849915 431.01434326 124.08857727 C431.0194632 128.72334381 431.0242779 133.35810678 431.02801514 137.99287415 C431.03395287 145.32141357 431.04091489 152.6499403 431.05462646 159.97846985 C431.06563094 165.89833654 431.07150033 171.81818958 431.07406425 177.73806572 C431.07588732 179.97704724 431.07944568 182.21602816 431.08491707 184.45500374 C431.11160656 195.84798506 431.0212989 207.21954691 430.54730225 218.60395813 C430.49137578 219.98335115 430.49137578 219.98335115 430.4343195 221.39061069 C428.45322979 263.90858045 409.21465797 304.65632083 377.92938232 333.42012024 C367.59079045 342.57575356 356.24003183 349.85623403 343.97918701 356.14717102 C343.36752686 356.46524719 342.7558667 356.78332336 342.12567139 357.11103821 C321.55004708 367.68615768 298.09258393 373.46387008 274.97918701 374.14717102 C273.85254639 374.18713196 272.72590576 374.2270929 271.56512451 374.26826477 C227.60931214 375.06831703 185.60184132 359.29951854 153.66351318 328.92988586 C143.41251871 318.85949744 135.06057158 307.64722511 127.97918701 295.14717102 C127.64967041 294.58095032 127.32015381 294.01472961 126.98065186 293.43135071 C109.45590072 263.20932652 105.54832188 230.64448662 105.46746826 196.28779602 C105.45218679 193.55866944 105.43257023 190.8295784 105.41307068 188.10047913 C105.36983332 181.70858838 105.34102654 175.31672224 105.31774729 168.92473102 C105.28777311 160.9141623 105.23792464 152.90373086 105.18817139 144.89326477 C105.09975813 130.64460948 105.0407876 116.39602334 104.97918701 102.14717102 C72.30918701 102.14717102 39.63918701 102.14717102 5.97918701 102.14717102 Z " fill="#E2C067" transform="translate(244.02081298828125,354.8528289794922)"/>
<path d="M0 0 C14.95581097 11.7536852 25.26991303 27.40096547 28.1015625 46.4375 C29.38675128 65.08175611 26.81336262 83.8612524 14.44921875 98.76953125 C9.7744158 104.09819236 4.73216551 109.12469769 -0.8984375 113.4375 C-1.5584375 113.4375 -2.2184375 113.4375 -2.8984375 113.4375 C-2.8984375 114.0975 -2.8984375 114.7575 -2.8984375 115.4375 C-2.30417969 115.58445313 -1.70992187 115.73140625 -1.09765625 115.8828125 C9.91565669 118.86308692 19.00260534 124.7007721 28.1015625 131.4375 C28.9678125 132.07429687 29.8340625 132.71109375 30.7265625 133.3671875 C35.44361821 136.91972008 35.44361821 136.91972008 37.1015625 138.4375 C37.1015625 139.0975 37.1015625 139.7575 37.1015625 140.4375 C37.66359375 140.65792969 38.225625 140.87835938 38.8046875 141.10546875 C53.74958415 149.77249215 63.65443583 173.67761618 68.4140625 189.625 C71.50113763 201.46982903 75.85118575 218.47323506 70.4140625 230.25 C67.73263254 233.94602508 65.1798855 236.3983385 61.1015625 238.4375 C57.98961371 238.68441388 54.90117462 238.86316069 51.78344727 238.99169922 C50.7753 239.03380964 49.76715273 239.07592007 48.72845554 239.11930656 C33.75320428 239.67264251 18.76459306 239.58335897 3.78148341 239.5718255 C-0.62837992 239.56924946 -5.03824142 239.57165371 -9.44810486 239.57321167 C-16.84504578 239.57501815 -24.24197663 239.57266719 -31.63891602 239.56787109 C-40.12828282 239.56242942 -48.6176256 239.56419665 -57.10699183 239.5696975 C-64.46485314 239.57426996 -71.82270731 239.57485921 -79.18056959 239.57225883 C-83.54492964 239.57071884 -87.90927849 239.57043838 -92.27363777 239.57379532 C-123.13769678 239.59365842 -123.13769678 239.59365842 -136.82202148 239.17919922 C-137.6806054 239.16561434 -138.53918932 239.15202946 -139.42379093 239.13803291 C-144.67113709 238.92578999 -147.71350462 237.86987688 -151.8984375 234.4375 C-158.77941733 226.81263046 -157.38560888 217.13986337 -156.8984375 207.4375 C-155.0623407 185.24048725 -145.41489962 164.14359608 -130.8984375 147.4375 C-130.19589844 146.57898438 -129.49335938 145.72046875 -128.76953125 144.8359375 C-118.39468616 132.65295528 -104.87569846 122.27141893 -89.8984375 116.4375 C-88.9084375 116.4375 -87.9184375 116.4375 -86.8984375 116.4375 C-86.5684375 115.7775 -86.2384375 115.1175 -85.8984375 114.4375 C-85.2384375 114.7675 -84.5784375 115.0975 -83.8984375 115.4375 C-83.8984375 114.7775 -83.8984375 114.1175 -83.8984375 113.4375 C-85.5484375 112.7775 -87.1984375 112.1175 -88.8984375 111.4375 C-88.8984375 110.7775 -88.8984375 110.1175 -88.8984375 109.4375 C-89.77242187 109.05851562 -89.77242187 109.05851562 -90.6640625 108.671875 C-101.12343029 102.89362287 -107.86107497 88.42659594 -111.3359375 77.4375 C-116.90647823 57.85317743 -114.30262535 38.43863488 -104.8203125 20.62890625 C-101.92948293 15.82848397 -98.63945281 11.59919173 -94.8984375 7.4375 C-94.38023437 6.82648438 -93.86203125 6.21546875 -93.328125 5.5859375 C-69.38886763 -20.75927539 -27.31636522 -20.23541069 0 0 Z M-76.8984375 22.4375 C-79.23325365 24.93230355 -81.11431798 27.52775303 -82.8984375 30.4375 C-83.46498047 31.35982422 -83.46498047 31.35982422 -84.04296875 32.30078125 C-90.78823476 44.50289167 -91.58991928 58.30529049 -87.87109375 71.5546875 C-83.89201437 83.3481035 -77.0719278 92.62659532 -65.8984375 98.4375 C-51.04317803 104.42937656 -37.27581322 105.10553884 -22.1640625 99.40625 C-10.3624335 93.98189878 -2.85281125 85.1388964 1.9140625 73.1875 C5.76107347 61.0390443 5.24216212 47.30842101 -0.1875 35.67578125 C-1.63590247 33.14688603 -3.18544503 30.79438325 -4.8984375 28.4375 C-5.41277344 27.72851562 -5.92710937 27.01953125 -6.45703125 26.2890625 C-13.97958181 16.87234454 -24.23754611 11.7388208 -35.9921875 9.97265625 C-51.68784101 8.30966439 -64.80980266 12.3258821 -76.8984375 22.4375 Z M-72.8984375 135.4375 C-73.53604004 135.67355957 -74.17364258 135.90961914 -74.83056641 136.15283203 C-97.97818007 144.81016234 -115.02119237 161.15316814 -125.62109375 183.46875 C-129.89607065 193.40447614 -132.8984375 203.56911565 -132.8984375 214.4375 C-73.1684375 214.4375 -13.4384375 214.4375 48.1015625 214.4375 C44.38486894 188.42064506 34.45093015 166.76290864 13.39697266 150.08740234 C-10.75394006 132.05888213 -44.02267695 124.13537305 -72.8984375 135.4375 Z " fill="#E2C067" transform="translate(554.8984375,75.5625)"/>
<path d="M0 0 C15.92416383 13.51006945 24.86603188 31.55340941 26.59765625 52.36328125 C27.29312975 72.77391655 18.83989135 89.87478703 5.44140625 104.63671875 C2.35263608 107.70213338 -1.02901565 110.24873402 -4.625 112.6875 C-3.60921875 113.1 -2.5934375 113.5125 -1.546875 113.9375 C25.8763555 125.33234239 48.65389163 145.98203578 60.49169922 173.47753906 C66.95873092 189.65763053 73.8403731 211.70808005 67.4296875 228.7421875 C65.17153733 232.90722003 61.85596902 235.19384366 57.375 236.6875 C53.59551393 237.03373753 49.79822863 237.11413502 46.00585938 237.24609375 C44.81535728 237.28834579 43.62485519 237.33059784 42.39827728 237.37413025 C26.87870971 237.86721999 11.35689477 237.79726097 -4.16863823 237.75596237 C-8.51529339 237.74579953 -12.86195366 237.74243827 -17.20861816 237.73852539 C-28.18075745 237.72756307 -39.15287492 237.70793282 -50.125 237.6875 C-62.06120604 237.66539351 -73.99740427 237.64492011 -85.93362665 237.63408184 C-91.09022077 237.62910829 -96.24677546 237.61926702 -101.40335369 237.60565186 C-104.59162516 237.59821167 -107.77989118 237.59488118 -110.96817017 237.5926857 C-112.44726384 237.59080981 -113.92635646 237.5872012 -115.40544128 237.58175278 C-117.41949364 237.57456403 -119.43356665 237.57408429 -121.44763184 237.57397461 C-123.13860111 237.57064369 -123.13860111 237.57064369 -124.86373138 237.56724548 C-127.71453844 237.56476179 -127.71453844 237.56476179 -130.625 238.6875 C-132.29766198 238.38568747 -133.96394517 238.04775789 -135.625 237.6875 C-137.603281 237.56768487 -139.58260165 237.46418461 -141.5625 237.375 C-148.14451095 236.85005434 -151.55164887 235.04103371 -155.9375 230.0625 C-161.51259468 222.21607044 -159.96827334 210.75615214 -158.625 201.6875 C-153.4673974 171.6796303 -137.53323917 144.62476163 -112.625 126.6875 C-93.40307487 113.6875 -93.40307487 113.6875 -85.625 113.6875 C-85.625 113.0275 -85.625 112.3675 -85.625 111.6875 C-86.31980469 111.47480469 -87.01460938 111.26210937 -87.73046875 111.04296875 C-100.52398049 105.05194504 -108.11580932 90.78882202 -112.9609375 78.22265625 C-118.81900081 60.0875879 -117.6679915 40.95431 -109.625 23.6875 C-100.51843837 5.96453161 -86.44781643 -6.87153152 -67.53515625 -13.375 C-43.71347484 -20.17185835 -19.39917802 -15.36646846 0 0 Z M-80.7265625 22.92578125 C-90.12775077 34.5072451 -93.62615229 47.20705509 -92.19921875 62.10546875 C-90.25738867 74.21878971 -84.32945909 85.07883958 -74.625 92.6875 C-61.34974377 100.74126093 -48.36750405 103.64863878 -33 100.5 C-20.96891341 97.4176555 -10.85665544 90.30202214 -4.1875 79.6875 C1.8537927 68.56059931 4.08359641 56.05353265 1.28125 43.53515625 C-2.95857587 30.21259996 -10.2260215 19.73246882 -22.8125 13.1875 C-42.35636571 3.99038673 -65.70430643 6.92624086 -80.7265625 22.92578125 Z M-101.625 148.6875 C-102.48738281 149.3990625 -103.34976563 150.110625 -104.23828125 150.84375 C-120.14939085 164.55772611 -132.29379084 184.4978526 -134.625 205.6875 C-134.625 207.9975 -134.625 210.3075 -134.625 212.6875 C-75.225 213.0175 -15.825 213.3475 45.375 213.6875 C43.50233764 193.08821405 37.25456417 176.84107103 24.375 160.6875 C23.42560547 159.43646484 23.42560547 159.43646484 22.45703125 158.16015625 C9.28408813 142.51574162 -12.49246414 131.8314313 -32.625 129.6875 C-58.17719924 128.37619358 -81.42753712 131.90325178 -101.625 148.6875 Z " fill="#E1C067" transform="translate(312.625,77.3125)"/>
<path d="M0 0 C1.00546875 0.74636719 1.00546875 0.74636719 2.03125 1.5078125 C16.45546101 12.89836008 24.47258189 31.1952421 27 49 C28.19698652 67.59932902 23.22554686 85.06241971 12 100 C7.77747689 104.73038671 3.21618085 109.36448001 -2 113 C-2.66 113 -3.32 113 -4 113 C-4 113.66 -4 114.32 -4 115 C-2.824375 115.33 -1.64875 115.66 -0.4375 116 C26.42559532 125.09471566 47.4309743 146.91244639 59.98632812 171.81005859 C67.12716202 187.23714916 74.42148584 210.73642086 68.8125 227.5 C66.25349953 232.44151814 63.21192103 235.93343616 58 238 C46.69325329 239.42329271 35.12122891 239.14918126 23.74291992 239.14526367 C21.97517833 239.14826453 20.20743738 239.15166914 18.43969727 239.15544128 C13.69005408 239.16418447 8.94042896 239.16661507 4.19077849 239.16725707 C1.21563201 239.16797232 -1.75951001 239.17011538 -4.73465538 239.17275429 C-15.13454857 239.18197072 -25.53442903 239.18609323 -35.93432617 239.18530273 C-45.59904984 239.1847007 -55.26371792 239.19528664 -64.92842752 239.2110464 C-73.25921667 239.22414284 -81.58998767 239.22948585 -89.92078704 239.22884732 C-94.8823952 239.22859326 -99.84395371 239.23139474 -104.80555153 239.24202538 C-109.46701491 239.25174367 -114.12838143 239.25176009 -118.78984833 239.24450874 C-120.49294108 239.24346803 -122.19604 239.24579508 -123.89912224 239.2518692 C-146.14998638 239.3260499 -146.14998638 239.3260499 -153 235.1875 C-158.25154954 229.44361769 -159.21250275 224.26321388 -158.93652344 216.71923828 C-157.64011611 191.56179066 -149.93354179 167.08816807 -133 148 C-131.76636719 146.55173828 -131.76636719 146.55173828 -130.5078125 145.07421875 C-121.52078654 134.71334832 -111.06533755 126.56868943 -99 120 C-98.10925781 119.51402344 -97.21851563 119.02804688 -96.30078125 118.52734375 C-89.57033426 115 -89.57033426 115 -85 115 C-88.17539556 111.57421051 -88.17539556 111.57421051 -92 109 C-92 108.34 -92 107.68 -92 107 C-92.87205078 106.63648438 -92.87205078 106.63648438 -93.76171875 106.265625 C-103.87936517 100.54465215 -109.66831803 86.03003181 -112.90722656 75.27978516 C-117.77672541 57.21421346 -115.94181877 38.24813344 -107 21.8125 C-100.1147117 9.93931853 -91.14224553 0.51884568 -79 -6 C-77.75089844 -6.70382813 -77.75089844 -6.70382813 -76.4765625 -7.421875 C-52.53341171 -20.2620505 -21.01100819 -17.12853929 0 0 Z M-76.80078125 21.515625 C-82.4828023 27.40809128 -86.28629373 33.28549005 -89 41 C-89.24363281 41.66386719 -89.48726562 42.32773438 -89.73828125 43.01171875 C-93.26061098 54.44131931 -91.3180288 67.42424237 -86.375 78.0625 C-80.317041 89.42117312 -71.93321073 97.22319445 -59.46875 101.09765625 C-45.35222494 104.39662678 -32.39456364 103.54068138 -19.4453125 96.56640625 C-7.89225565 89.16580594 -1.34942831 79.45194262 2.3046875 66.35546875 C5.1038119 52.84733473 1.77200221 40.61484698 -5.53515625 29.12109375 C-6.01855469 28.42113281 -6.50195312 27.72117187 -7 27 C-7.51433594 26.24847656 -8.02867187 25.49695313 -8.55859375 24.72265625 C-9.27208984 23.86994141 -9.27208984 23.86994141 -10 23 C-10.66 23 -11.32 23 -12 23 C-12 22.34 -12 21.68 -12 21 C-30.49713663 4.7096801 -58.54497966 5.11850335 -76.80078125 21.515625 Z M-84 139 C-84.92554688 139.44214844 -85.85109375 139.88429687 -86.8046875 140.33984375 C-107.96742133 151.16101501 -123.99643894 171.07023209 -131.375 193.5625 C-132.63217539 198.15469814 -133.45932111 202.68605809 -134.1015625 207.40234375 C-134.27252441 208.64363037 -134.44348633 209.88491699 -134.61962891 211.16381836 C-134.8079126 212.56772827 -134.8079126 212.56772827 -135 214 C-134.06357666 213.99476318 -133.12715332 213.98952637 -132.16235352 213.98413086 C-128.44719538 213.96505007 -124.73204034 213.95422179 -121.0168457 213.94506836 C-119.45401266 213.94024912 -117.8911834 213.93361192 -116.32836914 213.92456055 C-107.00443685 213.87219621 -97.68922879 213.96403878 -88.36889648 214.22485352 C-87.58586151 214.2466996 -86.80282654 214.26854568 -85.99606323 214.29105377 C-85.18951294 214.31356956 -84.38296265 214.33608536 -83.55197144 214.35928345 C-57.82080341 215.07555141 -32.1047527 215.1201033 -6.36499023 215.06866455 C-0.54346092 215.05819417 5.27807324 215.0538177 11.09960938 215.04882812 C22.3997516 215.03829502 33.6998734 215.02136881 45 215 C45.01614092 213.41491022 45.02759705 211.82977233 45.03710938 210.24462891 C45.0439978 209.36191315 45.05088623 208.47919739 45.0579834 207.56973267 C44.59605743 187.09790319 31.10554447 167.27970044 16.97265625 153.6328125 C-10.44776235 129.34718552 -50.77641837 123.11242895 -84 139 Z " fill="#E1C067" transform="translate(801,76)"/>
<path d="M0 0 C2.875 2.5 2.875 2.5 5 5 C5.33 5.33 5.66 5.66 6 6 C6.63970274 10.69115341 5.77788496 13.98031558 4.04296875 18.36328125 C3.58760742 19.51747559 3.13224609 20.67166992 2.66308594 21.86083984 C2.10962211 23.24092043 1.55518259 24.62060995 1 26 C0.68172241 26.79311584 0.36344482 27.58623169 0.03552246 28.40338135 C-2.23618106 34.05905196 -4.52246833 39.70875251 -6.81317139 45.35675049 C-8.9341755 50.58698561 -11.05100081 55.81891144 -13.16796875 61.05078125 C-13.79393951 62.59756561 -13.79393951 62.59756561 -14.43255615 64.17559814 C-17.92936796 72.81901292 -21.41080464 81.46846502 -24.875 90.125 C-25.33140869 91.26380615 -25.78781738 92.4026123 -26.25805664 93.57592773 C-28.4255197 98.99927864 -30.55955384 104.43377858 -32.65283203 109.88623047 C-33.31582809 111.61243118 -33.31582809 111.61243118 -33.99221802 113.37350464 C-34.32478607 114.24024811 -34.65735413 115.10699158 -35 116 C-33.83941322 116.00879936 -33.83941322 116.00879936 -32.65538025 116.01777649 C-25.34342276 116.07581721 -18.03180162 116.14795832 -10.72014523 116.23571491 C-6.96164556 116.28033415 -3.20325218 116.31960837 0.55541992 116.34643555 C4.18663302 116.37255354 7.81743527 116.41301461 11.44839287 116.46318626 C12.82972519 116.47979788 14.21112848 116.49134757 15.59254646 116.49761391 C29.1413633 116.56526081 29.1413633 116.56526081 35 120 C37.95068769 123.32675573 38.92606944 127.00193748 39.25 131.375 C37.34508562 136.89925171 33.81391657 140.63954087 30 145 C29.03770422 146.12123152 28.07683191 147.24368588 27.1171875 148.3671875 C25.57875139 150.16691434 24.03870961 151.9650939 22.49267578 153.75830078 C19.46082453 157.275629 16.48462474 160.8278165 13.5625 164.4375 C9.96363464 168.87239942 6.25256462 173.19557179 2.5 177.5 C-2.78987564 183.57051156 -7.93986321 189.7359645 -13 196 C-18.23768271 202.44783323 -23.53622926 208.83629802 -28.91577148 215.16577148 C-31.79520268 218.5591538 -34.63189727 221.98249917 -37.4375 225.4375 C-40.91072512 229.70745059 -44.46801491 233.89495673 -48.0625 238.0625 C-51.44778811 241.9881677 -54.7863604 245.93117149 -58 250 C-61.70968216 254.69687408 -65.59744351 259.22437519 -69.50561523 263.75561523 C-73.3221761 268.1881191 -77.04165323 272.69089938 -80.73046875 277.23046875 C-84.15842264 281.41363451 -87.65895623 285.53379802 -91.1640625 289.65234375 C-93.09358394 291.92170132 -95.00249419 294.20643151 -96.8984375 296.50390625 C-109.75084181 312.02469786 -109.75084181 312.02469786 -116 313 C-120.87095286 312.04320569 -123.89552279 310.940298 -127 307 C-129.3010063 300.0969811 -127.87311947 294.51253384 -125.15625 288.0703125 C-124.86770142 287.35390594 -124.57915283 286.63749939 -124.28186035 285.89938354 C-123.36747059 283.63575278 -122.43465402 281.38032932 -121.5 279.125 C-120.56905962 276.8469115 -119.64202613 274.56730439 -118.71813965 272.28634644 C-118.14434686 270.87315239 -117.5658034 269.46187602 -116.98205566 268.05276489 C-115.49878947 264.63932833 -115.49878947 264.63932833 -115 261 C-114.34 261 -113.68 261 -113 261 C-112.87703049 260.28938919 -112.75406097 259.57877838 -112.62736511 258.84663391 C-111.97816009 255.90090262 -111.05461841 253.26450644 -109.9621582 250.45385742 C-109.54114334 249.36469528 -109.12012848 248.27553314 -108.68635559 247.15336609 C-108.22911606 245.98255997 -107.77187653 244.81175385 -107.30078125 243.60546875 C-106.57808053 241.73987708 -105.85538048 239.87428516 -105.13271618 238.00867939 C-104.11852495 235.3935727 -103.10057202 232.77993654 -102.08270264 230.16625977 C-100.32117852 225.64065458 -98.56590509 221.11262108 -96.81010437 216.58479309 C-95.87790446 214.18086995 -94.94373159 211.77774658 -94.00837708 209.37504578 C-90.60097964 200.60771762 -87.30345769 191.80922052 -84 183 C-105.12 183.33 -126.24 183.66 -148 184 C-148 183.34 -148 182.68 -148 182 C-148.886875 181.95875 -149.77375 181.9175 -150.6875 181.875 C-155.15831259 180.69403064 -156.48243514 178.81231251 -159 175 C-160.40266392 170.87967473 -160.17423819 167.93029771 -158.2734375 163.98046875 C-155.41727959 159.53852992 -151.60725774 155.83119824 -148 152 C-146.82606971 150.67305743 -145.65878762 149.34018661 -144.5 148 C-138.1030713 140.66407259 -131.53403153 133.48540271 -124.94628906 126.32128906 C-122.42843936 123.57727462 -119.93990872 120.81348326 -117.5 118 C-114.13677362 114.12182987 -110.66664329 110.34472189 -107.19189453 106.56689453 C-102.75776372 101.74415109 -98.3748176 96.8765888 -94 92 C-92.50028872 90.33307353 -91.00028679 88.66640851 -89.5 87 C-88.7678125 86.18402344 -88.035625 85.36804688 -87.28125 84.52734375 C-85.68671203 82.76079227 -84.08165259 81.00370644 -82.46875 79.25390625 C-81.6540625 78.36574219 -80.839375 77.47757812 -80 76.5625 C-79.2575 75.75941406 -78.515 74.95632813 -77.75 74.12890625 C-75.81056595 72.02859439 -75.81056595 72.02859439 -75 69 C-73.5390625 67.59765625 -73.5390625 67.59765625 -71.625 66.0625 C-66.44488226 61.66585202 -62.00175794 56.66819457 -57.47070312 51.62792969 C-55.00369165 48.8971806 -52.50043362 46.2001126 -50 43.5 C-44.31627852 37.34889736 -38.65093724 31.18123048 -33 25 C-31.68128906 23.55753906 -31.68128906 23.55753906 -30.3359375 22.0859375 C-26.59893214 17.98765065 -22.87918225 13.88175229 -19.25 9.6875 C-8.91993905 -2.15308874 -8.91993905 -2.15308874 0 0 Z M-44 70 C-49.30872245 75.68579059 -54.56664182 81.36683484 -59.4375 87.4375 C-63.79741306 92.85412448 -68.47475879 97.91938296 -73.21484375 103 C-75.97596347 105.96144168 -78.65054651 108.98985638 -81.30078125 112.05078125 C-85.5746796 116.95348303 -89.96919471 121.75112166 -94.328125 126.578125 C-98.31647454 131.00058062 -102.2774595 135.44227357 -106.18359375 139.9375 C-108.97291058 143.10472427 -111.83300709 146.2075967 -114.69140625 149.3125 C-116.6118434 151.5481358 -118.3849787 153.80718352 -120.14428711 156.16796875 C-120.68033066 156.88621826 -121.21637421 157.60446777 -121.7686615 158.34448242 C-122.1750032 158.89080322 -122.58134491 159.43712402 -123 160 C-121.88912773 160.00879936 -121.88912773 160.00879936 -120.7558136 160.01777649 C-113.76700466 160.07574725 -106.77846798 160.14784915 -99.78997517 160.23571491 C-96.19732735 160.28038946 -92.60479216 160.31965162 -89.01196289 160.34643555 C-85.54284303 160.37249823 -82.07415725 160.41292056 -78.60530663 160.46318626 C-76.64178155 160.48792221 -74.67808842 160.49789227 -72.71443176 160.50764465 C-71.5135643 160.52743881 -70.31269684 160.54723297 -69.07543945 160.56762695 C-68.02064896 160.57873001 -66.96585846 160.58983307 -65.87910461 160.60127258 C-62.57526769 161.05882121 -60.68211341 162.04783578 -58 164 C-55.11827508 168.45357487 -56.12888399 173.02380687 -57 178 C-57.76966063 180.72813401 -58.7736731 183.32228272 -59.84375 185.9453125 C-60.12915146 186.67024399 -60.41455292 187.39517548 -60.70860291 188.14207458 C-61.62916746 190.47378235 -62.56465056 192.79918936 -63.5 195.125 C-64.13667006 196.73383031 -64.77216092 198.34312774 -65.40649414 199.95288086 C-67.76818021 205.93566053 -70.15703331 211.90744085 -72.55810547 217.87451172 C-73.45838659 220.11224623 -74.35594619 222.35107878 -75.25 224.59130859 C-76.02336836 226.52631949 -76.80549453 228.45786043 -77.59765625 230.38525391 C-77.93539062 231.22878418 -78.273125 232.07231445 -78.62109375 232.94140625 C-78.9142749 233.66013916 -79.20745605 234.37887207 -79.50952148 235.11938477 C-80.23544105 237.2026888 -80.23544105 237.2026888 -79 240 C-70.60337852 230.43527242 -62.43847078 220.71948225 -54.45751953 210.80566406 C-52.3815341 208.23380674 -50.28496421 205.67937323 -48.1875 203.125 C-45.53888004 199.89310995 -42.91342709 196.64536402 -40.3125 193.375 C-35.41089444 187.22838663 -30.39470778 181.17643627 -25.390625 175.11328125 C-22.6857673 171.83532249 -19.99552155 168.54587 -17.3125 165.25 C-14.95436823 162.357535 -12.57279071 159.48933571 -10.1484375 156.65234375 C-9.41113403 155.78851074 -9.41113403 155.78851074 -8.65893555 154.90722656 C-7.71029708 153.7985142 -6.75884219 152.69220243 -5.80395508 151.58886719 C-2.91583524 148.21539831 -0.43517773 144.70867547 2 141 C1.16007256 141.00333092 1.16007256 141.00333092 0.30317688 141.00672913 C-5.58669387 141.02905435 -11.47655238 141.04401875 -17.36645508 141.05493164 C-19.55721526 141.05992418 -21.74797218 141.06672055 -23.9387207 141.07543945 C-57.5733213 141.20583585 -57.5733213 141.20583585 -63 136 C-65.1766511 129.47004669 -64.08010677 124.19161773 -61.47265625 117.9921875 C-61.20812653 117.35193634 -60.9435968 116.71168518 -60.67105103 116.05203247 C-59.81453702 113.98731267 -58.93880433 111.93138778 -58.0625 109.875 C-57.46778311 108.45109384 -56.87444963 107.02660912 -56.2824707 105.6015625 C-55.09573515 102.74941325 -53.90203878 99.90035018 -52.70214844 97.05371094 C-50.3173202 91.38819497 -48.00401397 85.69370459 -45.6875 80 C-44.96280509 78.22893516 -44.23760973 76.45807495 -43.51171875 74.6875 C-43.01285156 73.470625 -42.51398438 72.25375 -42 71 C-42.99 70.505 -42.99 70.505 -44 70 Z M-81 240 C-80 242 -80 242 -80 242 Z " fill="#E2C167" transform="translate(571,331)"/>
<path d="M0 0 C0.33 0 0.66 0 1 0 C1.02578125 0.94101562 1.0515625 1.88203125 1.078125 2.8515625 C1.26107051 12.30936691 1.26107051 12.30936691 6 20 C9.53670165 22.69906178 12.60886713 23.48940315 17 24 C17 24.33 17 24.66 17 25 C12.80228268 26.00745216 10.72370911 26.36894974 6.8125 24.375 C0.29962567 18.87523945 0.29962567 18.87523945 -0.3190918 15.00292969 C-0.39303785 12.71842583 -0.34952782 10.47089781 -0.25 8.1875 C-0.23195313 7.39923828 -0.21390625 6.61097656 -0.1953125 5.79882812 C-0.14844048 3.86535739 -0.0767041 1.93251715 0 0 Z " fill="#EAC76B" transform="translate(399,288)"/>
<path d="M0 0 C1.7435756 3.11930825 2.54645178 5.99110451 3.1875 9.5 C3.36667969 10.4384375 3.54585938 11.376875 3.73046875 12.34375 C3.99098064 14.91111354 3.80670869 16.57415258 3 19 C-0.01103265 14.48345102 -0.12682381 10.52637619 -0.0625 5.1875 C-0.05347656 4.21167969 -0.04445313 3.23585938 -0.03515625 2.23046875 C-0.02355469 1.49441406 -0.01195312 0.75835938 0 0 Z " fill="#EAC86B" transform="translate(352,589)"/>
<path d="M0 0 C0 0.33 0 0.66 0 1 C-1.216875 1.165 -2.43375 1.33 -3.6875 1.5 C-6.5148697 2.17175096 -7.71876939 2.6655267 -9.609375 4.9140625 C-10.47730102 6.35890405 -11.30647686 7.82793218 -12.08984375 9.3203125 C-12.39019531 9.87460937 -12.69054687 10.42890625 -13 11 C-13.33 11 -13.66 11 -14 11 C-14.40060526 7.49470398 -14.15413141 6.2260594 -12.125 3.25 C-8.29098653 -0.80954367 -5.33882412 -0.08611007 0 0 Z " fill="#EAC76B" transform="translate(667,357)"/>
<path d="M0 0 C1.29132785 3.87398355 0.41113572 6.81988786 -0.4375 10.6875 C-0.58509766 11.38939453 -0.73269531 12.09128906 -0.88476562 12.81445312 C-1.2495932 14.54444194 -1.62388689 16.27242963 -2 18 C-2.33 18 -2.66 18 -3 18 C-3.55353075 5.33029613 -3.55353075 5.33029613 0 0 Z " fill="#E9C86C" transform="translate(403,264)"/>
<path d="M0 0 C7.42857143 -0.14285714 7.42857143 -0.14285714 11 1 C11 1.66 11 2.32 11 3 C12.32 3.33 13.64 3.66 15 4 C4.44191344 3.22095672 4.44191344 3.22095672 0 1 C0 0.67 0 0.34 0 0 Z " fill="#EAC86B" transform="translate(440,824)"/>
<path d="M0 0 C2 3 2 3 2 5 C1.34 5 0.68 5 0 5 C0 9.62 0 14.24 0 19 C-0.33 19 -0.66 19 -1 19 C-1.02697137 16.39576408 -1.04682489 13.79180756 -1.0625 11.1875 C-1.07087891 10.44951172 -1.07925781 9.71152344 -1.08789062 8.95117188 C-1.10259828 5.70077932 -1.03531702 3.10595105 0 0 Z " fill="#ECC96C" transform="translate(709,120)"/>
<path d="M0 0 C0.66 0 1.32 0 2 0 C4.21538462 7.38461538 4.21538462 7.38461538 3.125 10.5 C2.75375 10.995 2.3825 11.49 2 12 C0.86235649 7.73383684 0 4.43513689 0 0 Z " fill="#E9C66A" transform="translate(375,262)"/>
<path d="M0 0 C0.33 0 0.66 0 1 0 C0.52060632 4.71403788 0.03165952 8.66579301 -2 13 C-2.33 13 -2.66 13 -3 13 C-2.67 10.03 -2.34 7.06 -2 4 C-1.34 4 -0.68 4 0 4 C0 2.68 0 1.36 0 0 Z " fill="#E8C66B" transform="translate(315,139)"/>
<path d="M0 0 C0.33 0 0.66 0 1 0 C0.88490339 1.41750563 0.75746342 2.83401169 0.625 4.25 C0.55539062 5.03890625 0.48578125 5.8278125 0.4140625 6.640625 C0 9 0 9 -2 13 C-2 9.7 -2 6.4 -2 3 C-1.34 3 -0.68 3 0 3 C0 2.01 0 1.02 0 0 Z " fill="#E9C66B" transform="translate(647,266)"/>
<path d="M0 0 C0.66 0 1.32 0 2 0 C3.28317892 3.84953676 3.06643637 6.94738135 3 11 C2.67 11 2.34 11 2 11 C0.80712589 7.12315913 0 4.08378077 0 0 Z " fill="#EAC76C" transform="translate(822,108)"/>
<path d="M0 0 C4.16138263 -0.08159574 7.9472484 0.01751476 12 1 C12 1.33 12 1.66 12 2 C7.28400182 2.92470553 4.32734391 3.22923777 0 1 C0 0.67 0 0.34 0 0 Z " fill="#E9C66A" transform="translate(764,205)"/>
<path d="M0 0 C2.97 0 5.94 0 9 0 C9 0.33 9 0.66 9 1 C6.03 1 3.06 1 0 1 C0 0.67 0 0.34 0 0 Z " fill="#E6C468" transform="translate(334,382)"/>
<path d="M0 0 C2.64 0 5.28 0 8 0 C8 0.33 8 0.66 8 1 C5.36 1 2.72 1 0 1 C0 0.67 0 0.34 0 0 Z " fill="#E6C369" transform="translate(280,382)"/>
<path d="M0 0 C2.31 0 4.62 0 7 0 C7 0.33 7 0.66 7 1 C4.69 1 2.38 1 0 1 C0 0.67 0 0.34 0 0 Z " fill="#E5C469" transform="translate(744,382)"/>
<path d="M0 0 C2.31 0 4.62 0 7 0 C7 0.33 7 0.66 7 1 C4.69 1 2.38 1 0 1 C0 0.67 0 0.34 0 0 Z " fill="#E5C468" transform="translate(312,382)"/>
<path d="M0 0 C2.31 0 4.62 0 7 0 C7 0.33 7 0.66 7 1 C4.69 1 2.38 1 0 1 C0 0.67 0 0.34 0 0 Z " fill="#E5C468" transform="translate(272,382)"/>
<path d="M0 0 C1.65 0 3.3 0 5 0 C4.67 0.66 4.34 1.32 4 2 C2.68 1.34 1.36 0.68 0 0 Z " fill="#E4C369" transform="translate(768,382)"/>
<path d="M0 0 C1.98 0 3.96 0 6 0 C6 0.33 6 0.66 6 1 C4.02 1 2.04 1 0 1 C0 0.67 0 0.34 0 0 Z " fill="#E7C569" transform="translate(679,382)"/>
<path d="M0 0 C1.65 0 3.3 0 5 0 C5 0.33 5 0.66 5 1 C3.35 1 1.7 1 0 1 C0 0.67 0 0.34 0 0 Z " fill="#E6C469" transform="translate(296,382)"/>
<path d="M0 0 C1.65 0 3.3 0 5 0 C5 0.33 5 0.66 5 1 C3.35 1 1.7 1 0 1 C0 0.67 0 0.34 0 0 Z " fill="#E6C368" transform="translate(290,382)"/>
<path d="M0 0 C4 1 4 1 4 1 Z " fill="#E3C067" transform="translate(568,824)"/>
<path d="M0 0 C4 1 4 1 4 1 Z " fill="#E6C467" transform="translate(739,382)"/>
<path d="M0 0 C4 1 4 1 4 1 Z " fill="#E6C368" transform="translate(723,382)"/>
<path d="M0 0 C4 1 4 1 4 1 Z " fill="#E6C369" transform="translate(305,382)"/>
<path d="M0 0 C1 4 1 4 1 4 Z " fill="#E4C369" transform="translate(711,130)"/>
<path d="" fill="#E4C268" transform="translate(0,0)"/>
<path d="M0 0 C0.99 0.495 0.99 0.495 2 1 C1.01 1.495 1.01 1.495 0 2 C0 1.34 0 0.68 0 0 Z " fill="#E5C46A" transform="translate(497,560)"/>
<path d="" fill="#E6C669" transform="translate(0,0)"/>
<path d="M0 0 C3 1 3 1 3 1 Z " fill="#E5C368" transform="translate(716,382)"/>
<path d="M0 0 C0.66 0.66 1.32 1.32 2 2 C1.34 2 0.68 2 0 2 C0 1.34 0 0.68 0 0 Z " fill="#E4C269" transform="translate(477,214)"/>
<path d="M0 0 C3 1 3 1 3 1 Z " fill="#E4C36A" transform="translate(255,176)"/>
<path d="" fill="#E2C167" transform="translate(0,0)"/>
<path d="" fill="#E2C26A" transform="translate(0,0)"/>
<path d="" fill="#E6C469" transform="translate(0,0)"/>
<path d="M0 0 C3 1 3 1 3 1 Z " fill="#E5C369" transform="translate(501,87)"/>
<path d="M0 0 C2 1 2 1 2 1 Z " fill="#D7B55F" transform="translate(448,851)"/>
<path d="M0 0 C2 1 2 1 2 1 Z " fill="#E2C065" transform="translate(649,792)"/>
<path d="" fill="#E2C166" transform="translate(0,0)"/>
<path d="M0 0 C2 1 2 1 2 1 Z " fill="#E4C268" transform="translate(576,688)"/>
<path d="" fill="#D8BB64" transform="translate(0,0)"/>
<path d="M0 0 C2 1 2 1 2 1 Z " fill="#E3C169" transform="translate(368,653)"/>
<path d="" fill="#DAB964" transform="translate(0,0)"/>
<path d="" fill="#E7C569" transform="translate(0,0)"/>
<path d="" fill="#E4C268" transform="translate(0,0)"/>
<path d="" fill="#E7C468" transform="translate(0,0)"/>
<path d="" fill="#E7C467" transform="translate(0,0)"/>
<path d="" fill="#E7C367" transform="translate(0,0)"/>
<path d="" fill="#E6C468" transform="translate(0,0)"/>
<path d="" fill="#E6C267" transform="translate(0,0)"/>
<path d="" fill="#DCBD66" transform="translate(0,0)"/>
<path d="" fill="#E7C469" transform="translate(0,0)"/>
<path d="" fill="#DDBD66" transform="translate(0,0)"/>
<path d="M0 0 C2 1 2 1 2 1 Z " fill="#E7C569" transform="translate(492,489)"/>
<path d="M0 0 C2 1 2 1 2 1 Z " fill="#E7C569" transform="translate(484,489)"/>
<path d="M0 0 C2 1 2 1 2 1 Z " fill="#E5C368" transform="translate(468,489)"/>
<path d="M0 0 C2 1 2 1 2 1 Z " fill="#E7C469" transform="translate(460,489)"/>
<path d="" fill="#E5C368" transform="translate(0,0)"/>
<path d="" fill="#E6C367" transform="translate(0,0)"/>
<path d="" fill="#E5C467" transform="translate(0,0)"/>
<path d="" fill="#E6C469" transform="translate(0,0)"/>
<path d="" fill="#E7C469" transform="translate(0,0)"/>
<path d="" fill="#E7C369" transform="translate(0,0)"/>
<path d="" fill="#E3C167" transform="translate(0,0)"/>
<path d="" fill="#DEBD64" transform="translate(0,0)"/>
<path d="" fill="#DDBC65" transform="translate(0,0)"/>
<path d="M0 0 C2 1 2 1 2 1 Z " fill="#E5C368" transform="translate(763,382)"/>
<path d="M0 0 C2 1 2 1 2 1 Z " fill="#E6C468" transform="translate(760,382)"/>
<path d="M0 0 C2 1 2 1 2 1 Z " fill="#E6C468" transform="translate(755,382)"/>
<path d="M0 0 C2 1 2 1 2 1 Z " fill="#E5C468" transform="translate(752,382)"/>
<path d="M0 0 C2 1 2 1 2 1 Z " fill="#E6C36A" transform="translate(728,382)"/>
<path d="M0 0 C2 1 2 1 2 1 Z " fill="#E6C468" transform="translate(720,382)"/>
<path d="M0 0 C2 1 2 1 2 1 Z " fill="#E6C368" transform="translate(707,382)"/>
<path d="M0 0 C2 1 2 1 2 1 Z " fill="#E6C568" transform="translate(704,382)"/>
<path d="M0 0 C2 1 2 1 2 1 Z " fill="#E7C368" transform="translate(691,382)"/>
<path d="M0 0 C2 1 2 1 2 1 Z " fill="#E7C569" transform="translate(688,382)"/>
<path d="M0 0 C2 1 2 1 2 1 Z " fill="#E8C469" transform="translate(676,382)"/>
<path d="M0 0 C2 1 2 1 2 1 Z " fill="#E7C468" transform="translate(331,382)"/>
<path d="M0 0 C2 1 2 1 2 1 Z " fill="#E6C367" transform="translate(302,382)"/>
<path d="M0 0 C2 1 2 1 2 1 Z " fill="#E6C56A" transform="translate(264,382)"/>
<path d="M0 0 C2 1 2 1 2 1 Z " fill="#E7C469" transform="translate(259,382)"/>
<path d="M0 0 C2 1 2 1 2 1 Z " fill="#E7C46A" transform="translate(256,382)"/>
<path d="M0 0 C2 1 2 1 2 1 Z " fill="#E6C468" transform="translate(252,382)"/>
<path d="" fill="#E7C569" transform="translate(0,0)"/>
<path d="M0 0 C2 1 2 1 2 1 Z " fill="#E7C467" transform="translate(221,288)"/>
<path d="" fill="#E6C56B" transform="translate(0,0)"/>
<path d="" fill="#E3C36A" transform="translate(0,0)"/>
<path d="" fill="#E3C269" transform="translate(0,0)"/>
<path d="" fill="#E6C46C" transform="translate(0,0)"/>
<path d="M0 0 C2 1 2 1 2 1 Z " fill="#E4C46A" transform="translate(584,246)"/>
<path d="M0 0 C2 1 2 1 2 1 Z " fill="#E6C46C" transform="translate(501,176)"/>
<path d="" fill="#DDBD66" transform="translate(0,0)"/>
<path d="" fill="#E2C267" transform="translate(0,0)"/>
<path d="" fill="#D5B663" transform="translate(0,0)"/>
<path d="" fill="#E5C369" transform="translate(0,0)"/>
<path d="" fill="#E5C36A" transform="translate(0,0)"/>
<path d="" fill="#E5C468" transform="translate(0,0)"/>
<path d="" fill="#E4C469" transform="translate(0,0)"/>
<path d="" fill="#DCBC65" transform="translate(0,0)"/>
<path d="M0 0 C2 1 2 1 2 1 Z " fill="#E5C369" transform="translate(261,87)"/>
<path d="" fill="#42381B" transform="translate(0,0)"/>
<path d="" fill="#D8B65F" transform="translate(0,0)"/>
<path d="" fill="#D8B760" transform="translate(0,0)"/>
<path d="" fill="#D7B65F" transform="translate(0,0)"/>
<path d="" fill="#D7B45F" transform="translate(0,0)"/>
<path d="" fill="#D8B55F" transform="translate(0,0)"/>
<path d="" fill="#D5B65E" transform="translate(0,0)"/>
<path d="" fill="#D6B760" transform="translate(0,0)"/>
<path d="" fill="#D9B662" transform="translate(0,0)"/>
<path d="" fill="#D7B562" transform="translate(0,0)"/>
<path d="" fill="#E2BF66" transform="translate(0,0)"/>
<path d="" fill="#D6B561" transform="translate(0,0)"/>
<path d="" fill="#E2BF67" transform="translate(0,0)"/>
<path d="" fill="#E3C066" transform="translate(0,0)"/>
<path d="" fill="#DFC065" transform="translate(0,0)"/>
<path d="" fill="#E3C266" transform="translate(0,0)"/>
<path d="" fill="#D5B660" transform="translate(0,0)"/>
<path d="" fill="#D5B662" transform="translate(0,0)"/>
<path d="" fill="#D7B75E" transform="translate(0,0)"/>
<path d="" fill="#E0C064" transform="translate(0,0)"/>
<path d="" fill="#E1C066" transform="translate(0,0)"/>
<path d="" fill="#E3C066" transform="translate(0,0)"/>
<path d="" fill="#E2C166" transform="translate(0,0)"/>
<path d="" fill="#E3C166" transform="translate(0,0)"/>
<path d="" fill="#E2C068" transform="translate(0,0)"/>
<path d="" fill="#D5B760" transform="translate(0,0)"/>
<path d="" fill="#E4C266" transform="translate(0,0)"/>
<path d="" fill="#D7B760" transform="translate(0,0)"/>
<path d="" fill="#D8B561" transform="translate(0,0)"/>
<path d="" fill="#E4C367" transform="translate(0,0)"/>
<path d="" fill="#E2C167" transform="translate(0,0)"/>
<path d="" fill="#D8B660" transform="translate(0,0)"/>
<path d="" fill="#D5B560" transform="translate(0,0)"/>
<path d="" fill="#E2C368" transform="translate(0,0)"/>
<path d="" fill="#E3C264" transform="translate(0,0)"/>
<path d="" fill="#DAB861" transform="translate(0,0)"/>
<path d="" fill="#E1C268" transform="translate(0,0)"/>
<path d="" fill="#E3C164" transform="translate(0,0)"/>
<path d="" fill="#D7B661" transform="translate(0,0)"/>
<path d="" fill="#E2C169" transform="translate(0,0)"/>
<path d="" fill="#E3C064" transform="translate(0,0)"/>
<path d="" fill="#E4C467" transform="translate(0,0)"/>
<path d="" fill="#E3C167" transform="translate(0,0)"/>
<path d="" fill="#D7B863" transform="translate(0,0)"/>
<path d="" fill="#E4C268" transform="translate(0,0)"/>
<path d="" fill="#D5B661" transform="translate(0,0)"/>
<path d="" fill="#D6B761" transform="translate(0,0)"/>
<path d="" fill="#E6C265" transform="translate(0,0)"/>
<path d="" fill="#E4C167" transform="translate(0,0)"/>
<path d="" fill="#DAB965" transform="translate(0,0)"/>
<path d="" fill="#E2C065" transform="translate(0,0)"/>
<path d="" fill="#E5C468" transform="translate(0,0)"/>
<path d="" fill="#E4C264" transform="translate(0,0)"/>
<path d="" fill="#DBBB64" transform="translate(0,0)"/>
<path d="" fill="#DABA63" transform="translate(0,0)"/>
<path d="" fill="#E3C266" transform="translate(0,0)"/>
<path d="" fill="#E5C267" transform="translate(0,0)"/>
<path d="" fill="#D9B862" transform="translate(0,0)"/>
<path d="" fill="#E1C063" transform="translate(0,0)"/>
<path d="" fill="#D9BA64" transform="translate(0,0)"/>
<path d="" fill="#D9BC64" transform="translate(0,0)"/>
<path d="" fill="#E5C46A" transform="translate(0,0)"/>
<path d="" fill="#E5C369" transform="translate(0,0)"/>
<path d="" fill="#E2C167" transform="translate(0,0)"/>
<path d="" fill="#E5C36A" transform="translate(0,0)"/>
<path d="" fill="#DCB965" transform="translate(0,0)"/>
<path d="" fill="#D9B862" transform="translate(0,0)"/>
<path d="" fill="#E6C269" transform="translate(0,0)"/>
<path d="" fill="#E5C167" transform="translate(0,0)"/>
<path d="" fill="#E5C367" transform="translate(0,0)"/>
<path d="" fill="#E2C36A" transform="translate(0,0)"/>
<path d="" fill="#E3C36A" transform="translate(0,0)"/>
<path d="" fill="#DABA63" transform="translate(0,0)"/>
<path d="" fill="#D7B762" transform="translate(0,0)"/>
<path d="" fill="#E4C269" transform="translate(0,0)"/>
<path d="" fill="#E5C368" transform="translate(0,0)"/>
<path d="" fill="#E3C369" transform="translate(0,0)"/>
<path d="" fill="#E6C36A" transform="translate(0,0)"/>
<path d="" fill="#E4C266" transform="translate(0,0)"/>
<path d="" fill="#D9B964" transform="translate(0,0)"/>
<path d="" fill="#E4C369" transform="translate(0,0)"/>
<path d="" fill="#D7B562" transform="translate(0,0)"/>
<path d="" fill="#E4C36B" transform="translate(0,0)"/>
<path d="" fill="#E7C368" transform="translate(0,0)"/>
<path d="" fill="#E2C369" transform="translate(0,0)"/>
<path d="" fill="#D8B962" transform="translate(0,0)"/>
<path d="" fill="#E4C269" transform="translate(0,0)"/>
<path d="" fill="#E6C369" transform="translate(0,0)"/>
<path d="" fill="#DABA64" transform="translate(0,0)"/>
<path d="" fill="#E6C56A" transform="translate(0,0)"/>
<path d="" fill="#E4C168" transform="translate(0,0)"/>
<path d="" fill="#E5C46A" transform="translate(0,0)"/>
<path d="" fill="#E8C569" transform="translate(0,0)"/>
<path d="" fill="#D9B762" transform="translate(0,0)"/>
<path d="" fill="#DABA65" transform="translate(0,0)"/>
<path d="" fill="#DAB963" transform="translate(0,0)"/>
<path d="" fill="#E4C468" transform="translate(0,0)"/>
<path d="" fill="#DCBC63" transform="translate(0,0)"/>
<path d="" fill="#E2C269" transform="translate(0,0)"/>
<path d="" fill="#DABA63" transform="translate(0,0)"/>
<path d="" fill="#E6C468" transform="translate(0,0)"/>
<path d="" fill="#E7C66A" transform="translate(0,0)"/>
<path d="" fill="#E9C369" transform="translate(0,0)"/>
<path d="" fill="#E8C96B" transform="translate(0,0)"/>
<path d="" fill="#E6C368" transform="translate(0,0)"/>
<path d="" fill="#E5C368" transform="translate(0,0)"/>
<path d="" fill="#E7C66B" transform="translate(0,0)"/>
<path d="" fill="#E7C569" transform="translate(0,0)"/>
<path d="" fill="#E5C268" transform="translate(0,0)"/>
<path d="" fill="#E6C468" transform="translate(0,0)"/>
<path d="" fill="#E6C567" transform="translate(0,0)"/>
<path d="" fill="#E5C368" transform="translate(0,0)"/>
<path d="" fill="#E6C469" transform="translate(0,0)"/>
<path d="" fill="#DBBB65" transform="translate(0,0)"/>
<path d="" fill="#E6C267" transform="translate(0,0)"/>
<path d="" fill="#E6C268" transform="translate(0,0)"/>
<path d="" fill="#E5C269" transform="translate(0,0)"/>
<path d="" fill="#E5C469" transform="translate(0,0)"/>
<path d="" fill="#E6C56A" transform="translate(0,0)"/>
<path d="" fill="#E6C468" transform="translate(0,0)"/>
<path d="" fill="#DDBD66" transform="translate(0,0)"/>
<path d="" fill="#E4C367" transform="translate(0,0)"/>
<path d="" fill="#E4C368" transform="translate(0,0)"/>
<path d="" fill="#E5C469" transform="translate(0,0)"/>
<path d="" fill="#E4C46A" transform="translate(0,0)"/>
<path d="" fill="#E4C366" transform="translate(0,0)"/>
<path d="" fill="#E8C467" transform="translate(0,0)"/>
<path d="" fill="#E5C268" transform="translate(0,0)"/>
<path d="" fill="#E5C46A" transform="translate(0,0)"/>
<path d="" fill="#DBBC64" transform="translate(0,0)"/>
<path d="" fill="#E6C668" transform="translate(0,0)"/>
<path d="" fill="#E7C86A" transform="translate(0,0)"/>
<path d="" fill="#E5C667" transform="translate(0,0)"/>
<path d="" fill="#E7C56A" transform="translate(0,0)"/>
<path d="" fill="#E6C468" transform="translate(0,0)"/>
<path d="" fill="#DABB64" transform="translate(0,0)"/>
<path d="" fill="#E3C469" transform="translate(0,0)"/>
<path d="" fill="#E5C469" transform="translate(0,0)"/>
<path d="" fill="#E3C267" transform="translate(0,0)"/>
<path d="" fill="#DCBC65" transform="translate(0,0)"/>
<path d="" fill="#E5C56C" transform="translate(0,0)"/>
<path d="" fill="#E5C469" transform="translate(0,0)"/>
<path d="" fill="#DCB966" transform="translate(0,0)"/>
<path d="" fill="#E7C468" transform="translate(0,0)"/>
<path d="" fill="#E6C367" transform="translate(0,0)"/>
<path d="" fill="#E6C46A" transform="translate(0,0)"/>
<path d="" fill="#E8C56B" transform="translate(0,0)"/>
<path d="" fill="#E6C56A" transform="translate(0,0)"/>
<path d="" fill="#E6C56B" transform="translate(0,0)"/>
<path d="" fill="#E4C369" transform="translate(0,0)"/>
<path d="" fill="#E7C468" transform="translate(0,0)"/>
<path d="" fill="#E6C468" transform="translate(0,0)"/>
<path d="" fill="#E5C367" transform="translate(0,0)"/>
<path d="" fill="#E6C469" transform="translate(0,0)"/>
<path d="" fill="#E5C468" transform="translate(0,0)"/>
<path d="" fill="#E7C269" transform="translate(0,0)"/>
<path d="" fill="#DBBA63" transform="translate(0,0)"/>
<path d="" fill="#E6C569" transform="translate(0,0)"/>
<path d="" fill="#E5C367" transform="translate(0,0)"/>
<path d="" fill="#E6C46A" transform="translate(0,0)"/>
<path d="" fill="#D9BA63" transform="translate(0,0)"/>
<path d="" fill="#E5C46A" transform="translate(0,0)"/>
<path d="" fill="#E5C569" transform="translate(0,0)"/>
<path d="" fill="#E7C268" transform="translate(0,0)"/>
<path d="" fill="#E4C469" transform="translate(0,0)"/>
<path d="" fill="#E7C469" transform="translate(0,0)"/>
<path d="" fill="#E5C368" transform="translate(0,0)"/>
<path d="" fill="#E6C568" transform="translate(0,0)"/>
<path d="" fill="#E6C469" transform="translate(0,0)"/>
<path d="" fill="#E6C368" transform="translate(0,0)"/>
<path d="" fill="#E7C469" transform="translate(0,0)"/>
<path d="" fill="#E5C369" transform="translate(0,0)"/>
<path d="" fill="#E4C468" transform="translate(0,0)"/>
<path d="" fill="#DDBC65" transform="translate(0,0)"/>
<path d="" fill="#DCBD64" transform="translate(0,0)"/>
<path d="" fill="#E7C365" transform="translate(0,0)"/>
<path d="" fill="#E7C469" transform="translate(0,0)"/>
<path d="" fill="#E5C76B" transform="translate(0,0)"/>
<path d="" fill="#E6C668" transform="translate(0,0)"/>
<path d="" fill="#E5C367" transform="translate(0,0)"/>
<path d="" fill="#E6C469" transform="translate(0,0)"/>
<path d="" fill="#E8C468" transform="translate(0,0)"/>
<path d="" fill="#E5C569" transform="translate(0,0)"/>
<path d="" fill="#E7C469" transform="translate(0,0)"/>
<path d="" fill="#E6C468" transform="translate(0,0)"/>
<path d="" fill="#E4C368" transform="translate(0,0)"/>
<path d="" fill="#E8C46A" transform="translate(0,0)"/>
<path d="" fill="#E5C468" transform="translate(0,0)"/>
<path d="" fill="#DDBC64" transform="translate(0,0)"/>
<path d="" fill="#E5C369" transform="translate(0,0)"/>
<path d="" fill="#DCBD65" transform="translate(0,0)"/>
<path d="" fill="#E6C567" transform="translate(0,0)"/>
<path d="" fill="#E5C369" transform="translate(0,0)"/>
<path d="" fill="#E4C16A" transform="translate(0,0)"/>
<path d="" fill="#E5C468" transform="translate(0,0)"/>
<path d="" fill="#E5C267" transform="translate(0,0)"/>
<path d="" fill="#E6C368" transform="translate(0,0)"/>
<path d="" fill="#DDBE62" transform="translate(0,0)"/>
<path d="" fill="#E8C467" transform="translate(0,0)"/>
<path d="" fill="#E8C467" transform="translate(0,0)"/>
<path d="" fill="#DCBC64" transform="translate(0,0)"/>
<path d="" fill="#E4C369" transform="translate(0,0)"/>
<path d="" fill="#E3C269" transform="translate(0,0)"/>
<path d="" fill="#E6C268" transform="translate(0,0)"/>
<path d="" fill="#E6C467" transform="translate(0,0)"/>
<path d="" fill="#E6C366" transform="translate(0,0)"/>
<path d="" fill="#E7C468" transform="translate(0,0)"/>
<path d="" fill="#E7C469" transform="translate(0,0)"/>
<path d="" fill="#E7C469" transform="translate(0,0)"/>
<path d="" fill="#E6C368" transform="translate(0,0)"/>
<path d="" fill="#E8C468" transform="translate(0,0)"/>
<path d="" fill="#E9C669" transform="translate(0,0)"/>
<path d="" fill="#E7C566" transform="translate(0,0)"/>
<path d="" fill="#E7C668" transform="translate(0,0)"/>
<path d="" fill="#E7C469" transform="translate(0,0)"/>
<path d="" fill="#E7C468" transform="translate(0,0)"/>
<path d="" fill="#E6C668" transform="translate(0,0)"/>
<path d="" fill="#E5C269" transform="translate(0,0)"/>
<path d="" fill="#E9C469" transform="translate(0,0)"/>
<path d="" fill="#E6C368" transform="translate(0,0)"/>
<path d="" fill="#E7C56A" transform="translate(0,0)"/>
<path d="" fill="#E4C468" transform="translate(0,0)"/>
<path d="" fill="#E5C467" transform="translate(0,0)"/>
<path d="" fill="#E6C369" transform="translate(0,0)"/>
<path d="" fill="#DDBD65" transform="translate(0,0)"/>
<path d="" fill="#E7C467" transform="translate(0,0)"/>
<path d="" fill="#E4C467" transform="translate(0,0)"/>
<path d="" fill="#E4C468" transform="translate(0,0)"/>
<path d="" fill="#E7C468" transform="translate(0,0)"/>
<path d="" fill="#E8C76A" transform="translate(0,0)"/>
<path d="" fill="#E5C36A" transform="translate(0,0)"/>
<path d="" fill="#E4C169" transform="translate(0,0)"/>
<path d="" fill="#E4C269" transform="translate(0,0)"/>
<path d="" fill="#E5C368" transform="translate(0,0)"/>
<path d="" fill="#E6C268" transform="translate(0,0)"/>
<path d="" fill="#E7C369" transform="translate(0,0)"/>
<path d="" fill="#E6C66A" transform="translate(0,0)"/>
<path d="" fill="#E7C469" transform="translate(0,0)"/>
<path d="" fill="#E5C367" transform="translate(0,0)"/>
<path d="" fill="#E6C468" transform="translate(0,0)"/>
<path d="" fill="#E3C468" transform="translate(0,0)"/>
<path d="" fill="#E6C368" transform="translate(0,0)"/>
<path d="" fill="#E7C36B" transform="translate(0,0)"/>
<path d="" fill="#E7C469" transform="translate(0,0)"/>
<path d="" fill="#E6C46A" transform="translate(0,0)"/>
<path d="" fill="#E6C46B" transform="translate(0,0)"/>
<path d="" fill="#E4C368" transform="translate(0,0)"/>
<path d="" fill="#E6C66C" transform="translate(0,0)"/>
<path d="" fill="#D4B661" transform="translate(0,0)"/>
<path d="" fill="#D4B762" transform="translate(0,0)"/>
<path d="" fill="#E7C56C" transform="translate(0,0)"/>
<path d="" fill="#E2C168" transform="translate(0,0)"/>
<path d="" fill="#E6C56A" transform="translate(0,0)"/>
<path d="" fill="#E8C76B" transform="translate(0,0)"/>
<path d="" fill="#E3C169" transform="translate(0,0)"/>
<path d="" fill="#E5C468" transform="translate(0,0)"/>
<path d="" fill="#E3C26A" transform="translate(0,0)"/>
<path d="" fill="#E6C56A" transform="translate(0,0)"/>
<path d="" fill="#E5C66B" transform="translate(0,0)"/>
<path d="" fill="#E5C469" transform="translate(0,0)"/>
<path d="" fill="#E6C66D" transform="translate(0,0)"/>
<path d="" fill="#E4C369" transform="translate(0,0)"/>
<path d="" fill="#E4C46C" transform="translate(0,0)"/>
<path d="" fill="#E4C268" transform="translate(0,0)"/>
<path d="" fill="#E6C468" transform="translate(0,0)"/>
<path d="" fill="#E5C56B" transform="translate(0,0)"/>
<path d="" fill="#E7C368" transform="translate(0,0)"/>
<path d="" fill="#E5C369" transform="translate(0,0)"/>
<path d="" fill="#E5C26A" transform="translate(0,0)"/>
<path d="" fill="#E5C36A" transform="translate(0,0)"/>
<path d="" fill="#E4C369" transform="translate(0,0)"/>
<path d="" fill="#E4C36C" transform="translate(0,0)"/>
<path d="" fill="#E2C268" transform="translate(0,0)"/>
<path d="" fill="#E5C46A" transform="translate(0,0)"/>
<path d="" fill="#E7C56A" transform="translate(0,0)"/>
<path d="" fill="#E3C068" transform="translate(0,0)"/>
<path d="" fill="#E2C268" transform="translate(0,0)"/>
<path d="" fill="#E6C269" transform="translate(0,0)"/>
<path d="" fill="#E2C267" transform="translate(0,0)"/>
<path d="" fill="#E4C369" transform="translate(0,0)"/>
<path d="" fill="#E3C26A" transform="translate(0,0)"/>
<path d="" fill="#E2C169" transform="translate(0,0)"/>
<path d="" fill="#E4C26B" transform="translate(0,0)"/>
<path d="" fill="#E6C56C" transform="translate(0,0)"/>
<path d="" fill="#E5C568" transform="translate(0,0)"/>
<path d="" fill="#E3C367" transform="translate(0,0)"/>
<path d="" fill="#E7C36C" transform="translate(0,0)"/>
<path d="" fill="#E5C36A" transform="translate(0,0)"/>
<path d="" fill="#E0BE66" transform="translate(0,0)"/>
<path d="" fill="#E4C368" transform="translate(0,0)"/>
<path d="" fill="#E4C466" transform="translate(0,0)"/>
<path d="" fill="#E6C468" transform="translate(0,0)"/>
<path d="" fill="#E3C06A" transform="translate(0,0)"/>
<path d="" fill="#E5C36A" transform="translate(0,0)"/>
<path d="" fill="#E4C26C" transform="translate(0,0)"/>
<path d="" fill="#E5C46B" transform="translate(0,0)"/>
<path d="" fill="#E3C269" transform="translate(0,0)"/>
<path d="" fill="#E4C168" transform="translate(0,0)"/>
<path d="" fill="#E5C468" transform="translate(0,0)"/>
<path d="" fill="#E3C268" transform="translate(0,0)"/>
<path d="" fill="#DEBD66" transform="translate(0,0)"/>
<path d="" fill="#E3C168" transform="translate(0,0)"/>
<path d="" fill="#E2C46A" transform="translate(0,0)"/>
<path d="" fill="#E6C46A" transform="translate(0,0)"/>
<path d="" fill="#E4C169" transform="translate(0,0)"/>
<path d="" fill="#E2C269" transform="translate(0,0)"/>
<path d="" fill="#E4C469" transform="translate(0,0)"/>
<path d="" fill="#E5C56B" transform="translate(0,0)"/>
<path d="" fill="#E8C56B" transform="translate(0,0)"/>
<path d="" fill="#E5C26A" transform="translate(0,0)"/>
<path d="" fill="#E7C56A" transform="translate(0,0)"/>
<path d="" fill="#E8C56A" transform="translate(0,0)"/>
<path d="" fill="#E6C46A" transform="translate(0,0)"/>
<path d="" fill="#E5C56C" transform="translate(0,0)"/>
<path d="" fill="#E6C46B" transform="translate(0,0)"/>
<path d="" fill="#E0BE67" transform="translate(0,0)"/>
<path d="" fill="#E0BF68" transform="translate(0,0)"/>
<path d="" fill="#E4C26A" transform="translate(0,0)"/>
<path d="" fill="#E3C268" transform="translate(0,0)"/>
<path d="" fill="#E4C269" transform="translate(0,0)"/>
<path d="" fill="#D8B964" transform="translate(0,0)"/>
<path d="" fill="#E1BF68" transform="translate(0,0)"/>
<path d="" fill="#E4C16A" transform="translate(0,0)"/>
<path d="" fill="#E7C56A" transform="translate(0,0)"/>
<path d="" fill="#E2C167" transform="translate(0,0)"/>
<path d="" fill="#D5B663" transform="translate(0,0)"/>
<path d="" fill="#D8B864" transform="translate(0,0)"/>
<path d="" fill="#E0BF66" transform="translate(0,0)"/>
<path d="" fill="#E6C46B" transform="translate(0,0)"/>
<path d="" fill="#E6C46A" transform="translate(0,0)"/>
<path d="" fill="#E4C26A" transform="translate(0,0)"/>
<path d="" fill="#E1C069" transform="translate(0,0)"/>
<path d="" fill="#E4C269" transform="translate(0,0)"/>
<path d="" fill="#D2B35F" transform="translate(0,0)"/>
<path d="" fill="#E4C168" transform="translate(0,0)"/>
<path d="" fill="#E4C668" transform="translate(0,0)"/>
<path d="" fill="#D2B661" transform="translate(0,0)"/>
<path d="" fill="#E3C368" transform="translate(0,0)"/>
<path d="" fill="#D1B160" transform="translate(0,0)"/>
<path d="" fill="#E3C16B" transform="translate(0,0)"/>
<path d="" fill="#E4C26A" transform="translate(0,0)"/>
<path d="" fill="#DFBF66" transform="translate(0,0)"/>
<path d="" fill="#E3C269" transform="translate(0,0)"/>
<path d="" fill="#DFBF67" transform="translate(0,0)"/>
<path d="" fill="#E1BE64" transform="translate(0,0)"/>
<path d="" fill="#E5C56B" transform="translate(0,0)"/>
<path d="" fill="#E5C46A" transform="translate(0,0)"/>
<path d="" fill="#E3C369" transform="translate(0,0)"/>
<path d="" fill="#E4C167" transform="translate(0,0)"/>
<path d="" fill="#E4C46B" transform="translate(0,0)"/>
<path d="" fill="#E5C36A" transform="translate(0,0)"/>
<path d="" fill="#E5C169" transform="translate(0,0)"/>
<path d="" fill="#E4C069" transform="translate(0,0)"/>
<path d="" fill="#E6C168" transform="translate(0,0)"/>
<path d="" fill="#E6C46A" transform="translate(0,0)"/>
<path d="" fill="#E4C46A" transform="translate(0,0)"/>
<path d="" fill="#DABB63" transform="translate(0,0)"/>
<path d="" fill="#DCBB64" transform="translate(0,0)"/>
<path d="" fill="#D9BA63" transform="translate(0,0)"/>
<path d="" fill="#D9B963" transform="translate(0,0)"/>
<path d="" fill="#DABA62" transform="translate(0,0)"/>
<path d="" fill="#D7B863" transform="translate(0,0)"/>
</svg>
